<svg version="1.1" xmlns="http://www.w3.org/2000/svg" xmlns:xlink="http://www.w3.org/1999/xlink" width="154.66667" height="185.61333"><g transform="translate(-182.35627,-113.72)"><g data-paper-data="{&quot;isPaintingLayer&quot;:true}" fill="none" fill-rule="nonzero" stroke="none" stroke-width="none" stroke-linecap="none" stroke-linejoin="miter" stroke-miterlimit="10" stroke-dasharray="" stroke-dashoffset="0" font-family="none" font-weight="none" font-size="none" text-anchor="none" style="mix-blend-mode: normal"><path d="M188,292v-117h144v117z" data-paper-data="{&quot;origPos&quot;:null}" fill="#a0938b" stroke="none" stroke-width="NaN" stroke-linecap="butt"/><path d="M186.13334,169.03334l21.16666,-4.23334l111,-0.2l15.03333,4.43334z" data-paper-data="{&quot;origPos&quot;:null}" fill="#c9c3bf" stroke="none" stroke-width="0" stroke-linecap="butt"/><g data-paper-data="{&quot;origPos&quot;:null}" fill="#a0938b" stroke-width="0" stroke-linecap="butt"><path d="M182.66667,216.16667v-7.33333h151.83334v7.33333z" data-paper-data="{&quot;origPos&quot;:null}" stroke="#000000"/><path d="M254.76258,211.7v-36h8.4721v36z" data-paper-data="{&quot;origPos&quot;:null}" stroke="none"/></g><g data-paper-data="{&quot;origPos&quot;:null}" fill="#a0938b" stroke-width="0" stroke-linecap="butt"><path d="M182.66667,253.16667v-7.33333h152.33334v7.33333z" data-paper-data="{&quot;origPos&quot;:null}" stroke="#000000"/><path d="M255,248.7v-36h8.5v36z" data-paper-data="{&quot;origPos&quot;:null}" stroke="none"/></g><path d="M186.35627,173.12599v122.08752" data-paper-data="{&quot;origPos&quot;:null}" fill="none" stroke="#a0938b" stroke-width="8" stroke-linecap="round"/><path d="M333,173h-146.5" data-paper-data="{&quot;origPos&quot;:null}" fill="none" stroke="#a0938b" stroke-width="8" stroke-linecap="round"/><path d="M333.02294,295.21351v-122.08752" data-paper-data="{&quot;origPos&quot;:null}" fill="none" stroke="#a0938b" stroke-width="8" stroke-linecap="round"/><path d="M333,295.33333h-146.5" data-paper-data="{&quot;origPos&quot;:null}" fill="none" stroke="#a0938b" stroke-width="8" stroke-linecap="round"/><g data-paper-data="{&quot;origPos&quot;:null}"><g data-paper-data="{&quot;origPos&quot;:null}" fill="none" stroke="#c9c3bf" stroke-width="4" stroke-linecap="round"><path d="M192.18127,219.65h62.5468" data-paper-data="{&quot;origPos&quot;:null}"/><path d="M254.926,249.05267v-29.20534" data-paper-data="{&quot;origPos&quot;:null}"/><path d="M254.72807,249.25h-62.54681" data-paper-data="{&quot;origPos&quot;:null,&quot;index&quot;:null}"/><path d="M191.98334,249.05267v-29.20534" data-paper-data="{&quot;origPos&quot;:null,&quot;index&quot;:null}"/></g><path d="M193.57743,247.66074v-27.01746h60.37618v27.01746z" data-paper-data="{&quot;origPos&quot;:null}" fill="#c9c3bf" stroke="none" stroke-width="0" stroke-linecap="butt"/></g><g data-paper-data="{&quot;origPos&quot;:null}"><g data-paper-data="{&quot;origPos&quot;:null}" fill="none" stroke="#c9c3bf" stroke-width="4" stroke-linecap="round"><path d="M254.47807,260.15h-62.5468" data-paper-data="{&quot;origPos&quot;:null}"/><path d="M254.676,289.55267v-29.20534" data-paper-data="{&quot;origPos&quot;:null}"/><path d="M191.93126,289.75h62.54681" data-paper-data="{&quot;origPos&quot;:null,&quot;index&quot;:null}"/><path d="M191.73334,289.55267v-29.20534" data-paper-data="{&quot;origPos&quot;:null,&quot;index&quot;:null}"/></g><path d="M193.32743,288.16074v-27.01745h60.37618v27.01745z" data-paper-data="{&quot;origPos&quot;:null}" fill="#c9c3bf" stroke="none" stroke-width="0" stroke-linecap="butt"/></g><g data-paper-data="{&quot;origPos&quot;:null}"><g data-paper-data="{&quot;origPos&quot;:null}" fill="none" stroke="#c9c3bf" stroke-width="4" stroke-linecap="round"><path d="M329.47807,178.9h-62.5468" data-paper-data="{&quot;origPos&quot;:null}"/><path d="M329.676,208.30266v-29.20534" data-paper-data="{&quot;origPos&quot;:null}"/><path d="M329.47806,208.5h-62.5468" data-paper-data="{&quot;origPos&quot;:null,&quot;index&quot;:null}"/><path d="M266.73334,208.30266v-29.20534" data-paper-data="{&quot;origPos&quot;:null,&quot;index&quot;:null}"/></g><path d="M268.32742,206.91074v-27.01745h60.37618v27.01745z" data-paper-data="{&quot;origPos&quot;:null}" fill="#c9c3bf" stroke="none" stroke-width="0" stroke-linecap="butt"/></g><g data-paper-data="{&quot;origPos&quot;:null}"><g data-paper-data="{&quot;origPos&quot;:null}" fill="none" stroke="#c9c3bf" stroke-width="4" stroke-linecap="round"><path d="M266.68127,219.65h62.5468" data-paper-data="{&quot;origPos&quot;:null}"/><path d="M329.426,249.05267v-29.20534" data-paper-data="{&quot;origPos&quot;:null}"/><path d="M329.22807,249.25h-62.54681" data-paper-data="{&quot;origPos&quot;:null,&quot;index&quot;:null}"/><path d="M266.48334,249.05267v-29.20534" data-paper-data="{&quot;origPos&quot;:null,&quot;index&quot;:null}"/></g><path d="M268.07743,247.66074v-27.01746h60.37618v27.01746z" data-paper-data="{&quot;origPos&quot;:null}" fill="#c9c3bf" stroke="none" stroke-width="0" stroke-linecap="butt"/></g><g data-paper-data="{&quot;origPos&quot;:null}"><g data-paper-data="{&quot;origPos&quot;:null}" fill="none" stroke="#c9c3bf" stroke-width="4" stroke-linecap="round"><path d="M328.97807,260.15h-62.5468" data-paper-data="{&quot;origPos&quot;:null}"/><path d="M329.176,289.55267v-29.20534" data-paper-data="{&quot;origPos&quot;:null}"/><path d="M328.97807,289.75h-62.54681" data-paper-data="{&quot;origPos&quot;:null,&quot;index&quot;:null}"/><path d="M266.23334,289.55267v-29.20534" data-paper-data="{&quot;origPos&quot;:null,&quot;index&quot;:null}"/></g><path d="M267.82743,288.16074v-27.01745h60.37618v27.01745z" data-paper-data="{&quot;origPos&quot;:null}" fill="#c9c3bf" stroke="none" stroke-width="0" stroke-linecap="butt"/></g><path d="M307.24,164.17h-21.2" data-paper-data="{&quot;origPos&quot;:null}" fill="none" stroke="#6f6c69" stroke-width="8.5" stroke-linecap="round"/><path d="M296.84,149.57v13.4" data-paper-data="{&quot;origPos&quot;:null}" fill="none" stroke="#6f6c69" stroke-width="7" stroke-linecap="round"/><path d="M281.24,131.77c0,-8.7261 7.0739,-15.8 15.8,-15.8c8.7261,0 15.8,7.0739 15.8,15.8c0,8.7261 -7.0739,15.8 -15.8,15.8c-8.7261,0 -15.8,-7.0739 -15.8,-15.8z" data-paper-data="{&quot;origPos&quot;:null}" fill="#b4b4b4" stroke="#6f6c69" stroke-width="4.5" stroke-linecap="butt"/><g data-paper-data="{&quot;origPos&quot;:null}"><g data-paper-data="{&quot;origPos&quot;:null}" fill="none" stroke="#c9c3bf" stroke-width="4" stroke-linecap="round"><path d="M254.97807,178.9h-62.5468" data-paper-data="{&quot;origPos&quot;:null}"/><path d="M255.176,208.30266v-29.20534" data-paper-data="{&quot;origPos&quot;:null}"/><path d="M254.97806,208.5h-62.5468" data-paper-data="{&quot;origPos&quot;:null,&quot;index&quot;:null}"/><path d="M192.23334,208.30266v-29.20534" data-paper-data="{&quot;origPos&quot;:null,&quot;index&quot;:null}"/></g><path d="M193.82742,206.91074v-27.01745h60.37618v27.01745z" data-paper-data="{&quot;origPos&quot;:null}" fill="#c9c3bf" stroke="none" stroke-width="0" stroke-linecap="butt"/><path d="M190.16053,208.50705c0,0 0,-23.33536 0,-27.76872c0,-1.47779 -0.20344,-1.93763 0.47333,-2.83999c0.67677,-0.90236 1.25831,-0.94666 2.36665,-0.94666c2.03196,0 5.20663,0 5.20663,0v31.55537z" data-paper-data="{&quot;origPos&quot;:null}" fill="#d0c9c5" stroke="#dcd5d1" stroke-width="0" stroke-linecap="butt"/><g data-paper-data="{&quot;origPos&quot;:null}" stroke="#dcd5d1"><path d="M192.21163,208.50705l6.31107,-3.62887" data-paper-data="{&quot;origPos&quot;:null}" fill="none" stroke-width="4" stroke-linecap="round"/><path d="M255.00681,208.50704h-62.00629" data-paper-data="{&quot;origPos&quot;:null}" fill="none" stroke-width="4" stroke-linecap="round"/><path d="M198.36493,208.8226v-5.99552c0,0 49.59125,0.42088 54.58525,0.19388c1.66467,-0.07566 4.10773,-0.03611 4.10773,-0.03611v5.67996z" data-paper-data="{&quot;origPos&quot;:null}" fill="#dcd5d1" stroke-width="0" stroke-linecap="butt"/></g></g><g data-paper-data="{&quot;origPos&quot;:null,&quot;index&quot;:null}"><g data-paper-data="{&quot;origPos&quot;:null}" fill="none" stroke="#c9c3bf" stroke-width="4" stroke-linecap="round"><path d="M329.22516,178.7h-62.5468" data-paper-data="{&quot;origPos&quot;:null}"/><path d="M266.48043,178.89732v29.20534" data-paper-data="{&quot;origPos&quot;:null}"/><path d="M266.67837,208.3h62.5468" data-paper-data="{&quot;origPos&quot;:null,&quot;index&quot;:null}"/><path d="M329.42309,208.10266v-29.20534" data-paper-data="{&quot;origPos&quot;:null,&quot;index&quot;:null}"/></g><path d="M267.45283,206.71074v-27.01745h60.37618v27.01745z" data-paper-data="{&quot;origPos&quot;:null}" fill="#c9c3bf" stroke="none" stroke-width="0" stroke-linecap="butt"/><path d="M323.44928,208.30705v-31.55537c0,0 3.17468,0 5.20664,0c1.10834,0 1.68988,0.0443 2.36665,0.94666c0.67677,0.90236 0.47333,1.3622 0.47333,2.83998c0,4.43336 0,27.76873 0,27.76873z" data-paper-data="{&quot;origPos&quot;:null}" fill="#d0c9c5" stroke="#dcd5d1" stroke-width="0" stroke-linecap="butt"/><g data-paper-data="{&quot;origPos&quot;:null}" stroke="#dcd5d1"><path d="M329.4448,208.30705l-6.31108,-3.62887" data-paper-data="{&quot;origPos&quot;:null}" fill="none" stroke-width="4" stroke-linecap="round"/><path d="M266.64962,208.30704h62.00629" data-paper-data="{&quot;origPos&quot;:null}" fill="none" stroke-width="4" stroke-linecap="round"/><path d="M264.59852,208.46482v-5.67996c0,0 2.44306,-0.03956 4.10773,0.03611c4.99401,0.227 54.58525,-0.19388 54.58525,-0.19388v5.99552z" data-paper-data="{&quot;origPos&quot;:null}" fill="#dcd5d1" stroke-width="0" stroke-linecap="butt"/></g></g><g data-paper-data="{&quot;origPos&quot;:null}"><g data-paper-data="{&quot;origPos&quot;:null}" fill="none" stroke="#c9c3bf" stroke-width="4" stroke-linecap="round"><path d="M254.77807,219.7h-62.5468" data-paper-data="{&quot;origPos&quot;:null}"/><path d="M254.976,249.10266v-29.20534" data-paper-data="{&quot;origPos&quot;:null}"/><path d="M254.77806,249.3h-62.5468" data-paper-data="{&quot;origPos&quot;:null,&quot;index&quot;:null}"/><path d="M192.03334,249.10266v-29.20534" data-paper-data="{&quot;origPos&quot;:null,&quot;index&quot;:null}"/></g><path d="M193.62742,247.71074v-27.01745h60.37618v27.01745z" data-paper-data="{&quot;origPos&quot;:null}" fill="#c9c3bf" stroke="none" stroke-width="0" stroke-linecap="butt"/><path d="M189.96054,249.30705c0,0 0,-23.33537 0,-27.76873c0,-1.47779 -0.20344,-1.93762 0.47333,-2.83998c0.67677,-0.90236 1.25831,-0.94666 2.36665,-0.94666c2.03196,0 5.20664,0 5.20664,0v31.55537z" data-paper-data="{&quot;origPos&quot;:null}" fill="#d0c9c5" stroke="#dcd5d1" stroke-width="0" stroke-linecap="butt"/><g data-paper-data="{&quot;origPos&quot;:null}" stroke="#dcd5d1"><path d="M192.01163,249.30705l6.31107,-3.62887" data-paper-data="{&quot;origPos&quot;:null}" fill="none" stroke-width="4" stroke-linecap="round"/><path d="M254.80681,249.30704h-62.00629" data-paper-data="{&quot;origPos&quot;:null}" fill="none" stroke-width="4" stroke-linecap="round"/><path d="M198.16493,249.6226v-5.99552c0,0 49.59125,0.42088 54.58525,0.19388c1.66467,-0.07566 4.10773,-0.03611 4.10773,-0.03611v5.67996z" data-paper-data="{&quot;origPos&quot;:null}" fill="#dcd5d1" stroke-width="0" stroke-linecap="butt"/></g></g><g data-paper-data="{&quot;origPos&quot;:null}"><g data-paper-data="{&quot;origPos&quot;:null}" fill="none" stroke="#c9c3bf" stroke-width="4" stroke-linecap="round"><path d="M254.77807,260.3h-62.5468" data-paper-data="{&quot;origPos&quot;:null}"/><path d="M254.976,289.70266v-29.20534" data-paper-data="{&quot;origPos&quot;:null}"/><path d="M254.77806,289.9h-62.5468" data-paper-data="{&quot;origPos&quot;:null,&quot;index&quot;:null}"/><path d="M192.03334,289.70266v-29.20534" data-paper-data="{&quot;origPos&quot;:null,&quot;index&quot;:null}"/></g><path d="M193.62742,288.31074v-27.01745h60.37618v27.01745z" data-paper-data="{&quot;origPos&quot;:null}" fill="#c9c3bf" stroke="none" stroke-width="0" stroke-linecap="butt"/><path d="M189.96054,289.90705c0,0 0,-23.33537 0,-27.76873c0,-1.47779 -0.20344,-1.93763 0.47333,-2.83998c0.67677,-0.90236 1.25831,-0.94666 2.36665,-0.94666c2.03196,0 5.20664,0 5.20664,0v31.55537z" data-paper-data="{&quot;origPos&quot;:null}" fill="#d0c9c5" stroke="#dcd5d1" stroke-width="0" stroke-linecap="butt"/><g data-paper-data="{&quot;origPos&quot;:null}" stroke="#dcd5d1"><path d="M192.01163,289.90705l6.31107,-3.62887" data-paper-data="{&quot;origPos&quot;:null}" fill="none" stroke-width="4" stroke-linecap="round"/><path d="M254.80681,289.90704h-62.00629" data-paper-data="{&quot;origPos&quot;:null}" fill="none" stroke-width="4" stroke-linecap="round"/><path d="M198.16493,290.2226v-5.99552c0,0 49.59125,0.42088 54.58525,0.19388c1.66467,-0.07566 4.10773,-0.03611 4.10773,-0.03611v5.67996z" data-paper-data="{&quot;origPos&quot;:null}" fill="#dcd5d1" stroke-width="0" stroke-linecap="butt"/></g></g><g data-paper-data="{&quot;origPos&quot;:null,&quot;index&quot;:null}"><g data-paper-data="{&quot;origPos&quot;:null}" fill="none" stroke="#c9c3bf" stroke-width="4" stroke-linecap="round"><path d="M329.15849,219.7h-62.5468" data-paper-data="{&quot;origPos&quot;:null}"/><path d="M266.41376,249.10266v-29.20534" data-paper-data="{&quot;origPos&quot;:null}"/><path d="M329.1585,249.3h-62.5468" data-paper-data="{&quot;origPos&quot;:null,&quot;index&quot;:null}"/><path d="M329.35642,249.10266v-29.20534" data-paper-data="{&quot;origPos&quot;:null,&quot;index&quot;:null}"/></g><path d="M267.38616,247.71074v-27.01745h60.37618v27.01745z" data-paper-data="{&quot;origPos&quot;:null}" fill="#c9c3bf" stroke="none" stroke-width="0" stroke-linecap="butt"/><path d="M323.38261,249.30705v-31.55537c0,0 3.17468,0 5.20664,0c1.10834,0 1.68988,0.0443 2.36665,0.94666c0.67677,0.90236 0.47333,1.3622 0.47333,2.83998c0,4.43336 0,27.76873 0,27.76873z" data-paper-data="{&quot;origPos&quot;:null}" fill="#d0c9c5" stroke="#dcd5d1" stroke-width="0" stroke-linecap="butt"/><g data-paper-data="{&quot;origPos&quot;:null}" stroke="#dcd5d1"><path d="M329.37813,249.30705l-6.31107,-3.62887" data-paper-data="{&quot;origPos&quot;:null}" fill="none" stroke-width="4" stroke-linecap="round"/><path d="M266.58295,249.30704h62.0063" data-paper-data="{&quot;origPos&quot;:null}" fill="none" stroke-width="4" stroke-linecap="round"/><path d="M264.53185,249.46482v-5.67997c0,0 2.44306,-0.03956 4.10773,0.03611c4.994,0.227 54.58526,-0.19388 54.58526,-0.19388v5.99552z" data-paper-data="{&quot;origPos&quot;:null}" fill="#dcd5d1" stroke-width="0" stroke-linecap="butt"/></g></g><g data-paper-data="{&quot;origPos&quot;:null,&quot;index&quot;:null}"><g data-paper-data="{&quot;origPos&quot;:null}" fill="none" stroke="#c9c3bf" stroke-width="4" stroke-linecap="round"><path d="M328.95849,259.9h-62.5468" data-paper-data="{&quot;origPos&quot;:null}"/><path d="M266.21376,289.30266v-29.20534" data-paper-data="{&quot;origPos&quot;:null}"/><path d="M328.9585,289.5h-62.5468" data-paper-data="{&quot;origPos&quot;:null,&quot;index&quot;:null}"/><path d="M329.15642,260.09732v29.20534" data-paper-data="{&quot;origPos&quot;:null,&quot;index&quot;:null}"/></g><path d="M267.18616,287.91074v-27.01745h60.37618v27.01745z" data-paper-data="{&quot;origPos&quot;:null}" fill="#c9c3bf" stroke="none" stroke-width="0" stroke-linecap="butt"/><path d="M323.18261,289.50705v-31.55537c0,0 3.17468,0 5.20664,0c1.10834,0 1.68988,0.0443 2.36665,0.94666c0.67677,0.90236 0.47333,1.3622 0.47333,2.83999c0,4.43336 0,27.76873 0,27.76873z" data-paper-data="{&quot;origPos&quot;:null}" fill="#d0c9c5" stroke="#dcd5d1" stroke-width="0" stroke-linecap="butt"/><g data-paper-data="{&quot;origPos&quot;:null}" stroke="#dcd5d1"><path d="M322.86706,285.87818l6.31108,3.62887" data-paper-data="{&quot;origPos&quot;:null}" fill="none" stroke-width="4" stroke-linecap="round"/><path d="M328.38925,289.50704h-62.00629" data-paper-data="{&quot;origPos&quot;:null}" fill="none" stroke-width="4" stroke-linecap="round"/><path d="M264.33185,289.66482v-5.67996c0,0 2.44306,-0.03956 4.10773,0.03611c4.994,0.227 54.58525,-0.19389 54.58525,-0.19389v5.99552z" data-paper-data="{&quot;origPos&quot;:null}" fill="#dcd5d1" stroke-width="0" stroke-linecap="butt"/></g></g></g></g></svg>