<svg version="1.1" xmlns="http://www.w3.org/2000/svg" xmlns:xlink="http://www.w3.org/1999/xlink" width="695" height="536"><g transform="translate(102,103)"><g data-paper-data="{&quot;isPaintingLayer&quot;:true}" fill="none" fill-rule="nonzero" stroke="none" stroke-width="none" stroke-linecap="none" stroke-linejoin="miter" stroke-miterlimit="10" stroke-dasharray="" stroke-dashoffset="0" font-family="none" font-weight="none" font-size="none" text-anchor="none" style="mix-blend-mode: normal"><path d="M-102,315v-389h241v389z" data-paper-data="{&quot;origPos&quot;:null}" fill="#f0f0f0" stroke="none" stroke-width="0" stroke-linecap="butt"/><path d="M-2,306.26624l137.00001,-63.59956l239,1.35045l109.60059,73.49565c0,0 82.64532,35.60879 -3.5028,44.1413c-102.45743,10.14786 -377.13703,-1.18269 -480.09468,-1.65999c-61.27249,-0.28405 -1.00312,-44.72784 -1.00312,-44.72784z" data-paper-data="{&quot;origPos&quot;:null}" fill="#b4b4b4" stroke="none" stroke-width="0" stroke-linecap="butt"/><path d="M132,244v-292h348v292z" data-paper-data="{&quot;origPos&quot;:null}" fill="#d6d6d6" stroke="none" stroke-width="0" stroke-linecap="butt"/><path d="M-28,38.76744v-141.76744h508c0,0 -38.72549,44.52004 0.36136,58.32181c15.2875,5.3981 0.86342,57.4557 0.86342,57.4557l-348.22478,-2.01006c0,0 -76.07735,-28.2099 -133,-53c-23.61505,-10.28447 -28,81 -28,81z" data-paper-data="{&quot;origPos&quot;:null}" fill="#b9b9b9" stroke="none" stroke-width="0" stroke-linecap="butt"/><path d="M333,433v-190h260v190z" data-paper-data="{&quot;origPos&quot;:null}" fill="#b4b4b4" stroke="none" stroke-width="0" stroke-linecap="butt"/><path d="M28.5,196.89063l0.625,-155.5l74.875,19.5l1,114z" data-paper-data="{&quot;origPos&quot;:null}" fill="#c0e3ff" stroke="#ebebeb" stroke-width="0" stroke-linecap="butt"/><path d="M104,177v-115.66667" data-paper-data="{&quot;origPos&quot;:null}" fill="none" stroke="#686868" stroke-width="10" stroke-linecap="round"/><path d="M26.5,203.25v-165.75" data-paper-data="{&quot;origPos&quot;:null}" fill="none" stroke="#686868" stroke-width="10" stroke-linecap="round"/><path d="M27.375,203.25l76.5,-26.1875" data-paper-data="{&quot;origPos&quot;:null}" fill="none" stroke="#686868" stroke-width="10" stroke-linecap="round"/><path d="M27.12857,37.68036l76.74643,22.21964" data-paper-data="{&quot;origPos&quot;:null,&quot;index&quot;:null}" fill="none" stroke="#686868" stroke-width="10" stroke-linecap="round"/><path d="M32.5468,46.09189v149.375" data-paper-data="{&quot;origPos&quot;:null}" fill="none" stroke="#95c7ff" stroke-width="5" stroke-linecap="round"/><path d="M33.28011,46.15475l64.39053,17.71357" data-paper-data="{&quot;origPos&quot;:null,&quot;origRot&quot;:0}" fill="none" stroke="#95c7ff" stroke-width="5" stroke-linecap="round"/><path d="M97.88013,64.09189v110.70833" data-paper-data="{&quot;origPos&quot;:null}" fill="none" stroke="#95c7ff" stroke-width="5" stroke-linecap="round"/><path d="M32.94677,195.20165l64.39053,-20.0469" data-paper-data="{&quot;origPos&quot;:null,&quot;origRot&quot;:0,&quot;index&quot;:null}" fill="none" stroke="#95c7ff" stroke-width="5" stroke-linecap="round"/><path d="M32.48485,46.09091v42.33333" data-paper-data="{&quot;origPos&quot;:null}" fill="none" stroke="#47b4ff" stroke-width="5" stroke-linecap="round"/><path d="M71.33333,56.66667l-38.66667,-10.66667" data-paper-data="{&quot;origPos&quot;:null}" fill="none" stroke="#47b4ff" stroke-width="5" stroke-linecap="round"/><path d="M104.75,113.5v13.25" data-paper-data="{&quot;origPos&quot;:null}" fill="none" stroke="#c7c7c7" stroke-width="3.5" stroke-linecap="round"/><path d="M103.03126,113.60938c0,-0.9665 0.7835,-1.75 1.75,-1.75c0.9665,0 1.75,0.7835 1.75,1.75c0,0.9665 -0.7835,1.75 -1.75,1.75c-0.9665,0 -1.75,-0.7835 -1.75,-1.75z" data-paper-data="{&quot;origPos&quot;:null}" fill="none" stroke="#c7c7c7" stroke-width="2" stroke-linecap="butt"/></g></g></svg>