<svg version="1.1" xmlns="http://www.w3.org/2000/svg" xmlns:xlink="http://www.w3.org/1999/xlink" width="82.90279" height="97.13226"><g transform="translate(-212.66592,-148.26323)"><g data-paper-data="{&quot;isPaintingLayer&quot;:true}" fill="none" fill-rule="nonzero" stroke="none" stroke-width="none" stroke-linecap="none" stroke-linejoin="miter" stroke-miterlimit="10" stroke-dasharray="" stroke-dashoffset="0" font-family="none" font-weight="none" font-size="none" text-anchor="none" style="mix-blend-mode: normal"><path d="" data-paper-data="{&quot;origPos&quot;:null}" fill="#afaba6" stroke="none" stroke-width="0" stroke-linecap="butt"/><path d="" data-paper-data="{&quot;origPos&quot;:null}" fill="#afaba6" stroke="none" stroke-width="0" stroke-linecap="butt"/><path d="M295.2425,187.49684c0,-0.01005 0,-0.0201 0,-0.03016c0.00548,0.00072 0.01102,0.00126 0.01661,0.00161z" data-paper-data="{&quot;origPos&quot;:null}" fill="#afaba6" stroke="none" stroke-width="0" stroke-linecap="butt"/><path d="" data-paper-data="{&quot;origPos&quot;:null}" fill="#afaba6" stroke="none" stroke-width="0" stroke-linecap="butt"/><path d="" data-paper-data="{&quot;origPos&quot;:null}" fill="#afaba6" stroke="none" stroke-width="0" stroke-linecap="butt"/><path d="M295.56265,159.71217c0.002,0.01454 0.00402,0.02911 0.00606,0.0437l-0.03271,0.13084c0.00791,-0.06059 0.01683,-0.11903 0.02665,-0.17454z" data-paper-data="{&quot;origPos&quot;:null}" fill="#afaba6" stroke="none" stroke-width="0" stroke-linecap="butt"/><path d="" data-paper-data="{&quot;origPos&quot;:null}" fill="#afaba6" stroke="none" stroke-width="0" stroke-linecap="butt"/><path d="" data-paper-data="{&quot;origPos&quot;:null}" fill="#afaba6" stroke="none" stroke-width="0" stroke-linecap="butt"/><path d="" data-paper-data="{&quot;origPos&quot;:null}" fill="#afaba6" stroke="none" stroke-width="0" stroke-linecap="butt"/><path d="M212.66592,245.39548v-50.05704h48.11322v50.05704z" data-paper-data="{&quot;origPos&quot;:null}" fill="#b5b5b5" stroke="#3d3d3d" stroke-width="0" stroke-linecap="butt"/><path d="M222.87217,196.63417l-6.77705,-47.43935c0,0 4.52581,6.88138 24.3039,7.01074c20.22426,0.13228 24.3039,-7.01074 24.3039,-7.01074l-5.84228,47.43936c0,0 -3.47719,3.26854 -18.46162,3.50536c-14.78559,0.23368 -17.52686,-3.50536 -17.52686,-3.50536z" data-paper-data="{&quot;origPos&quot;:null}" fill="#ee6a00" stroke="none" stroke-width="0" stroke-linecap="butt"/><path d="M226.33385,173.29183l-1.58456,-8.65414c0,0 2.09361,0.62509 3.3889,0.81142c0.17998,0.02589 0.32361,2.03302 0.5037,2.05817c0.34079,0.04758 0.49028,-1.91993 0.83157,-1.87594c3.66226,0.47209 6.0269,0.8065 8.7142,0.88778c0.198,0.00598 -2.53103,2.932 -2.33304,2.92512c0.5345,-0.01857 1.94963,-1.16369 2.3005,-1.56733c0.12659,-0.14562 2.94638,1.37735 3.0551,1.21795c0.1723,-0.25264 -2.49387,-2.0125 -2.28802,-2.23865c0.22001,-0.24173 0.38236,-0.37986 0.70796,-0.4086c0.61349,-0.05411 0.95833,-0.10346 1.57422,-0.10346c3.48469,0 6.92473,-0.43645 10.38721,-0.8292c0.75894,-0.0861 2.49978,2.23721 3.25714,2.13815c0.77733,-0.10166 -2.3051,-2.19899 -1.52868,-2.3073c1.55632,-0.2171 4.70506,-0.7081 4.70506,-0.7081c0,0 0.24738,4.81937 -0.35708,7.55728c-0.2042,0.9249 -1.71503,1.8282 -1.71503,1.8282c0,0 -1.79343,0.36656 -2.94431,0.58598c-0.69567,0.13263 -1.55287,-4.24224 -2.25039,-4.11975c-0.61933,0.10876 -0.1551,0.72775 -0.10522,1.35457c0.03418,0.42942 -4.39701,0.58203 -4.37249,1.01211c0.01246,0.21858 4.41853,0.21522 4.39702,0.4331c-0.07143,0.72394 1.7628,1.56735 1.04367,1.6771c-3.50972,0.53568 -7.45409,1.00711 -11.00446,1.00711c0,0 -0.66499,-0.11209 -1.09061,-0.18387c-0.45779,-0.07721 0.08111,-0.31163 0.13025,-0.77327c0.07713,-0.72464 0.58418,-2.09051 -0.1347,-2.20991c-0.40789,-0.06775 -1.48525,2.73505 -1.89313,2.66725c-2.22176,-0.36935 -5.36732,-0.89015 -8.79623,-1.49723c-0.25918,-0.04589 0.82191,-0.73516 0.56449,-0.79006c-0.17771,-0.03789 -1.50684,0.61539 -1.67773,0.55363c-0.56945,-0.20575 -1.48528,-0.4481 -1.48528,-0.4481z" data-paper-data="{&quot;origPos&quot;:null}" fill="#dadada" stroke="none" stroke-width="0" stroke-linecap="butt"/><path d="M255.89427,173.94289v-1.82834h1.82834l-0.73134,1.09701z" data-paper-data="{&quot;origPos&quot;:null}" fill="#7b7b7b" stroke="none" stroke-width="0" stroke-linecap="butt"/><path d="M231.3599,174.38459l0.70447,-3.86104l1.65788,2.06265l0.6496,-2.51797l-1.81365,-2.2512l-2.25818,-1.99649l3.85806,0.46636l3.56129,9.24239z" data-paper-data="{&quot;origPos&quot;:null}" fill="#bdbdbd" stroke="none" stroke-width="0" stroke-linecap="butt"/><path d="M216.26959,149.76323l6.09787,46.34383" data-paper-data="{&quot;origPos&quot;:null}" fill="none" stroke="#d05e00" stroke-width="3" stroke-linecap="round"/><path d="M263.62973,149.76323c0,0 -5.55432,6.55747 -23.57792,6.32897c-18.86395,-0.23916 -23.78222,-6.32897 -23.78222,-6.32897" data-paper-data="{&quot;origPos&quot;:null}" fill="none" stroke="#d05e00" stroke-width="3" stroke-linecap="round"/><path d="M257.52914,196.51086l6.09787,-46.34381" data-paper-data="{&quot;origPos&quot;:null,&quot;index&quot;:null}" fill="none" stroke="#d05e00" stroke-width="3" stroke-linecap="round"/><path d="M257.52914,196.71412c0,0 -4.05251,3.82217 -17.20277,3.689c-13.76339,-0.1394 -17.35183,-3.689 -17.35183,-3.689" data-paper-data="{&quot;origPos&quot;:null}" fill="none" stroke="#d05e00" stroke-width="3" stroke-linecap="round"/><text transform="translate(231.39148,173.00725) scale(0.16562,0.16562)" font-size="40" xml:space="preserve" data-paper-data="{&quot;origPos&quot;:null}" fill="#535353" fill-rule="nonzero" stroke="none" stroke-width="1" stroke-linecap="butt" stroke-linejoin="miter" stroke-miterlimit="10" stroke-dasharray="" stroke-dashoffset="0" font-family="Sans Serif" font-weight="normal" text-anchor="start" style="mix-blend-mode: normal"><tspan x="0" dy="0">垃圾桶</tspan></text></g></g></svg>