<svg version="1.1" xmlns="http://www.w3.org/2000/svg" xmlns:xlink="http://www.w3.org/1999/xlink" width="76.89889" height="74.58392"><g transform="translate(-218.66982,-159.71217)"><g data-paper-data="{&quot;isPaintingLayer&quot;:true}" fill="none" fill-rule="nonzero" stroke="none" stroke-width="none" stroke-linecap="none" stroke-linejoin="miter" stroke-miterlimit="10" stroke-dasharray="" stroke-dashoffset="0" font-family="none" font-weight="none" font-size="none" text-anchor="none" style="mix-blend-mode: normal"><path d="M218.66982,234.29609v-38.50002h33.45619v38.50002z" data-paper-data="{&quot;origPos&quot;:null}" fill="#b5b5b5" stroke="#3d3d3d" stroke-width="0" stroke-linecap="butt"/><path d="" data-paper-data="{&quot;origPos&quot;:null}" fill="#afaba6" stroke="none" stroke-width="0" stroke-linecap="butt"/><path d="" data-paper-data="{&quot;origPos&quot;:null}" fill="#afaba6" stroke="none" stroke-width="0" stroke-linecap="butt"/><path d="M295.2425,187.49684c0,-0.01005 0,-0.0201 0,-0.03016c0.00548,0.00072 0.01102,0.00126 0.01661,0.00161z" data-paper-data="{&quot;origPos&quot;:null}" fill="#afaba6" stroke="none" stroke-width="0" stroke-linecap="butt"/><path d="" data-paper-data="{&quot;origPos&quot;:null}" fill="#afaba6" stroke="none" stroke-width="0" stroke-linecap="butt"/><path d="" data-paper-data="{&quot;origPos&quot;:null}" fill="#afaba6" stroke="none" stroke-width="0" stroke-linecap="butt"/><path d="M295.56265,159.71217c0.002,0.01454 0.00402,0.02911 0.00606,0.0437l-0.03271,0.13084c0.00791,-0.06059 0.01683,-0.11903 0.02665,-0.17454z" data-paper-data="{&quot;origPos&quot;:null}" fill="#afaba6" stroke="none" stroke-width="0" stroke-linecap="butt"/><path d="" data-paper-data="{&quot;origPos&quot;:null}" fill="#afaba6" stroke="none" stroke-width="0" stroke-linecap="butt"/><path d="" data-paper-data="{&quot;origPos&quot;:null}" fill="#afaba6" stroke="none" stroke-width="0" stroke-linecap="butt"/><path d="" data-paper-data="{&quot;origPos&quot;:null}" fill="#afaba6" stroke="none" stroke-width="0" stroke-linecap="butt"/><path d="M230.23589,196.96393l-3.94439,-27.61075c0,0 2.63412,4.00511 14.14541,4.08041c11.77097,0.07699 14.14541,-4.08041 14.14541,-4.08041l-3.40034,27.61076c0,0 -2.0238,1.90236 -10.74508,2.0402c-8.60554,0.13601 -10.20102,-2.0402 -10.20102,-2.0402z" data-paper-data="{&quot;origPos&quot;:null}" fill="#ee6a00" stroke="none" stroke-width="0" stroke-linecap="butt"/><path d="M232.25066,183.37816l-0.92225,-5.0369c0,0 1.21852,0.36382 1.97241,0.47226c0.10475,0.01507 0.18835,1.18326 0.29317,1.1979c0.19835,0.02769 0.28536,-1.11744 0.48399,-1.09184c2.13152,0.27476 3.50779,0.4694 5.07186,0.51671c0.11524,0.00348 -1.47311,1.70649 -1.35789,1.70249c0.31109,-0.01081 1.13472,-0.67729 1.33894,-0.91222c0.07368,-0.08475 1.71486,0.80165 1.77814,0.70887c0.10028,-0.14704 -1.45149,-1.17132 -1.33168,-1.30295c0.12805,-0.14069 0.22254,-0.22109 0.41205,-0.23781c0.35707,-0.0315 0.55777,-0.06022 0.91623,-0.06022c2.02816,0 4.03035,-0.25402 6.04559,-0.48262c0.44172,-0.05011 1.45493,1.30211 1.89573,1.24445c0.45242,-0.05917 -1.34162,-1.27986 -0.88972,-1.3429c0.90581,-0.12636 2.73845,-0.41213 2.73845,-0.41213c0,0 0.14398,2.80498 -0.20783,4.39851c-0.11885,0.53831 -0.99819,1.06405 -0.99819,1.06405c0,0 -1.04382,0.21335 -1.71365,0.34105c-0.40489,0.07719 -0.90381,-2.46907 -1.30978,-2.39779c-0.36046,0.0633 -0.09027,0.42357 -0.06123,0.78839c0.01989,0.24993 -2.55916,0.33875 -2.54488,0.58907c0.00725,0.12722 2.57168,0.12526 2.55916,0.25208c-0.04158,0.42135 1.02599,0.91224 0.60744,0.97611c-2.04274,0.31177 -4.33844,0.58616 -6.40484,0.58616c0,0 -0.38704,-0.06524 -0.63476,-0.10702c-0.26645,-0.04493 0.04721,-0.18137 0.07581,-0.45006c0.04489,-0.42176 0.34001,-1.21672 -0.0784,-1.28621c-0.2374,-0.03943 -0.86445,1.59186 -1.10184,1.5524c-1.29312,-0.21497 -3.1239,-0.51809 -5.1196,-0.87143c-0.15085,-0.02671 0.47837,-0.42788 0.32854,-0.45983c-0.10343,-0.02205 -0.87701,0.35817 -0.97648,0.32223c-0.33143,-0.11975 -0.86446,-0.2608 -0.86446,-0.2608z" data-paper-data="{&quot;origPos&quot;:null}" fill="#dadada" stroke="none" stroke-width="0" stroke-linecap="butt"/><path d="M249.45549,183.7571v-1.06414h1.06414l-0.42566,0.63848z" data-paper-data="{&quot;origPos&quot;:null}" fill="#7b7b7b" stroke="none" stroke-width="0" stroke-linecap="butt"/><path d="M235.17594,184.01418l0.41001,-2.24721l0.96492,1.20051l0.37808,-1.46552l-1.05558,-1.31025l-1.31431,-1.162l2.24547,0.27143l2.07275,5.37928z" data-paper-data="{&quot;origPos&quot;:null}" fill="#bdbdbd" stroke="none" stroke-width="0" stroke-linecap="butt"/><path d="M229.94213,196.65713l-3.54909,-26.97314" data-paper-data="{&quot;origPos&quot;:null}" fill="none" stroke="#d05e00" stroke-width="3" stroke-linecap="round"/><path d="M253.9577,169.68399c0,0 -3.23274,3.81659 -13.72287,3.6836c-10.97924,-0.13919 -13.84178,-3.6836 -13.84178,-3.6836" data-paper-data="{&quot;origPos&quot;:null}" fill="none" stroke="#d05e00" stroke-width="3" stroke-linecap="round"/><path d="M250.40702,196.89215l3.54909,-26.97313" data-paper-data="{&quot;origPos&quot;:null,&quot;index&quot;:null}" fill="none" stroke="#d05e00" stroke-width="3" stroke-linecap="round"/><path d="M250.40702,197.01045c0,0 -2.35865,2.22459 -10.0124,2.14708c-8.0106,-0.08114 -10.09915,-2.14708 -10.09915,-2.14708" data-paper-data="{&quot;origPos&quot;:null}" fill="none" stroke="#d05e00" stroke-width="3" stroke-linecap="round"/><text transform="translate(232.75453,183.56553) scale(0.13518,0.13518)" font-size="40" xml:space="preserve" data-paper-data="{&quot;origPos&quot;:null}" fill="#535353" fill-rule="nonzero" stroke="none" stroke-width="1" stroke-linecap="butt" stroke-linejoin="miter" stroke-miterlimit="10" stroke-dasharray="" stroke-dashoffset="0" font-family="Sans Serif" font-weight="normal" text-anchor="start" style="mix-blend-mode: normal"><tspan x="0" dy="0">垃圾桶</tspan></text></g></g></svg>