<svg version="1.1" xmlns="http://www.w3.org/2000/svg" xmlns:xlink="http://www.w3.org/1999/xlink" width="236.4904" height="251.64057" viewBox="0,0,236.4904,251.64057"><g transform="translate(41.711,-137.97095)"><g data-paper-data="{&quot;isPaintingLayer&quot;:true}" fill="none" fill-rule="nonzero" stroke="none" stroke-width="none" stroke-linecap="none" stroke-linejoin="miter" stroke-miterlimit="10" stroke-dasharray="" stroke-dashoffset="0" font-family="none" font-weight="none" font-size="none" text-anchor="none" style="mix-blend-mode: normal"><path d="M169.5,333.49999l25.2794,25.25317c0,0 -163.4841,68.82054 -192.49107,0.91011c-1.4186,-3.3212 -4.28833,-31.16327 -4.28833,-31.16327l150,16z" data-paper-data="{&quot;origPos&quot;:null}" fill="#a2a2a2" stroke="none" stroke-width="0" stroke-linecap="butt"/><path d="M160,226.49873l-3,120.00127h-12.5l0.5,-133.5z" data-paper-data="{&quot;origPos&quot;:null,&quot;index&quot;:null}" fill="#9e9e9e" stroke="none" stroke-width="0" stroke-linecap="butt"/><path d="M-1.8,290.1l-1,-51l2.30745,11.71371c0,0 -1.42897,-39.67846 -0.74346,-40.11271c2.05653,-1.30275 8.43602,-3.601 8.43602,-3.601l160.5,5c0,0 -168.9041,89.04557 -170.3395,89.72413z" data-paper-data="{&quot;origPos&quot;:null}" fill="#ffffff" stroke="#3c3c3c" stroke-width="0" stroke-linecap="butt"/><path d="M-1.33071,299.22604c2.18452,-1.63597 168.33072,-82.22604 168.33072,-82.22604" data-paper-data="{&quot;origPos&quot;:null}" fill="none" stroke="#a7a7a7" stroke-width="10" stroke-linecap="round"/><path d="M9.46607,255.32345l-9.38655,-5.49188l14.93379,-5.74146l12.37469,5.26081z" data-paper-data="{&quot;origPos&quot;:null,&quot;origRot&quot;:0}" fill="#cacaca" stroke="none" stroke-width="0" stroke-linecap="butt"/><path d="M157,347l1,-128h14l-1.5,115.06808z" data-paper-data="{&quot;origPos&quot;:null}" fill="#a7a7a7" stroke="none" stroke-width="0" stroke-linecap="butt"/><g data-paper-data="{&quot;origRot&quot;:0,&quot;origPos&quot;:null}"><path d="M63.70832,240.09067c0,0 6.69294,-1.707 10.73159,-0.60151c6.94238,1.90034 9.38415,6.00349 9.38415,6.00349z" data-paper-data="{&quot;origRot&quot;:0,&quot;origPos&quot;:null}" fill="#757575" stroke="#3c3c3c" stroke-width="0" stroke-linecap="butt"/><path d="M63.85985,239.45462c0,0 4.0363,-1.74143 10.41213,0.08687c6.77906,1.94393 9.91008,5.5113 9.91008,5.5113" data-paper-data="{&quot;origPos&quot;:null,&quot;origRot&quot;:0}" fill="none" stroke="#cecece" stroke-width="2" stroke-linecap="round"/><path d="M84.94114,245.34923c-0.63709,0.30097 -2.78843,-4.09217 -9.10776,-5.24486c-2.44956,-0.44682 -4.25617,-1.38751 -6.71156,-1.47111c-2.37222,-0.08077 -7.00332,2.26081 -5.46679,0.29719c2.42609,-3.10047 3.94711,-2.72617 6.42808,-2.97845c2.27139,-0.23097 9.75495,0.42767 16.0074,5.8269c0.84934,0.73344 0.83396,2.63335 -1.14937,3.57031z" data-paper-data="{&quot;origPos&quot;:null}" fill="#dcdcdc" stroke="none" stroke-width="0" stroke-linecap="butt"/></g><path d="M0.42131,249.92611l1.62334,-21.23157l16.6116,-3.4835l-3.39852,19.09565z" data-paper-data="{&quot;origPos&quot;:null,&quot;origRot&quot;:0}" fill="#aaaaaa" stroke="none" stroke-width="0" stroke-linecap="butt"/><path d="M-33.22382,261.84234l7.92972,-99.88336l24.80004,-11.37182l43.94428,-12.50405c0,0 2.69021,-0.51638 4.14722,0.66684c0.02874,0.08569 1.28339,0.36308 1.63213,3.17596c-0.64234,8.09097 1.84798,78.38368 1.84798,78.38368l-54.20908,20.32737z" data-paper-data="{&quot;origPos&quot;:null,&quot;origRot&quot;:0}" fill="#000000" stroke="none" stroke-width="NaN" stroke-linecap="butt"/><path d="M-33.07257,258.69292l1.17637,-14.81769l83.20829,-31.74978c0,0 -0.04199,5.16005 -0.32488,8.46274c-0.16311,1.90415 -0.82796,3.15796 -1.6363,4.14406c-0.58912,0.71868 -2.22742,2.10389 -4.43289,2.97998c-6.61644,2.62828 -77.99058,30.98068 -77.99058,30.98068z" data-paper-data="{&quot;origPos&quot;:null,&quot;origRot&quot;:0}" fill="#8c8c8c" stroke="none" stroke-width="NaN" stroke-linecap="butt"/><path d="M-41.711,195.99529l1.26302,-15.9091l39.5897,-23.10894l44.94051,-13.2309l1.36437,64.30561l-54.07929,19.54668z" data-paper-data="{&quot;origPos&quot;:null,&quot;origRot&quot;:0}" fill="#e6e6e6" stroke="none" stroke-width="NaN" stroke-linecap="butt"/><path d="M26.677,249.42876l-16.1693,5.89457l-9.65868,-5.07784" data-paper-data="{&quot;origPos&quot;:null,&quot;origRot&quot;:0}" fill="none" stroke="#bababa" stroke-width="1" stroke-linecap="round"/><path d="M-0.27564,157.09744l12.3141,-3.53205l32.52308,15.18462l0.30385,10.48846z" data-paper-data="{&quot;origPos&quot;:null}" fill="#f5f5f5" stroke="none" stroke-width="NaN" stroke-linecap="butt"/><g data-paper-data="{&quot;origRot&quot;:0,&quot;origPos&quot;:null}"><path d="M-3.01267,266.21976l61.04915,-23.1571l17.39079,5.38822l-52.50505,24.83162z" data-paper-data="{&quot;origPos&quot;:null}" fill="#dadada" stroke="#d0d0d0" stroke-width="0.5" stroke-linecap="butt"/><path d="M-2.1116,268.98749l0.27629,-2.81982l25.08927,7.14733z" data-paper-data="{&quot;origPos&quot;:null}" fill="#999999" stroke="none" stroke-width="0" stroke-linecap="butt"/><g data-paper-data="{&quot;origPos&quot;:null}" stroke="none" stroke-width="0" stroke-linecap="butt"><g data-paper-data="{&quot;origPos&quot;:null}"><path d="M2.12679,265.95301l-0.05577,-0.95844l5.80491,-1.5596l4.61233,1.22227l-0.17538,1.12319l-3.72074,1.5764z" data-paper-data="{&quot;origPos&quot;:null}" fill="#c0c0c0"/><path d="M2.12679,265.95301l0.09612,-0.98102l6.01865,1.47011l0.13257,0.89337z" data-paper-data="{&quot;origPos&quot;:null}" fill="#a0a0a0"/><path d="M8.38482,267.22647l-0.24156,-0.90406l4.563,-1.64382l0.03423,0.77369z" data-paper-data="{&quot;origPos&quot;:null}" fill="#747474"/></g><g data-paper-data="{&quot;origPos&quot;:null}"><path d="M9.46102,268.01135l-0.05577,-0.95844l5.80491,-1.5596l4.61231,1.22226l-0.17537,1.12319l-3.72074,1.5764z" data-paper-data="{&quot;origPos&quot;:null}" fill="#c0c0c0"/><path d="M9.46102,268.01135l0.09613,-0.98102l6.01865,1.47011l0.13256,0.89337z" data-paper-data="{&quot;origPos&quot;:null}" fill="#a0a0a0"/><path d="M15.71905,269.28482l-0.24156,-0.90406l4.563,-1.64382l0.03424,0.77369z" data-paper-data="{&quot;origPos&quot;:null}" fill="#747474"/></g><g data-paper-data="{&quot;origPos&quot;:null}"><path d="M17.127,270.10221l-0.05577,-0.95844l5.80491,-1.5596l4.61231,1.22227l-0.17537,1.12319l-3.72074,1.57641z" data-paper-data="{&quot;origPos&quot;:null}" fill="#c0c0c0"/><path d="M17.127,270.10221l0.09613,-0.98102l6.01865,1.47011l0.13257,0.89337z" data-paper-data="{&quot;origPos&quot;:null}" fill="#a0a0a0"/><path d="M23.38503,271.37568l-0.24156,-0.90405l4.56299,-1.64382l0.03425,0.77369z" data-paper-data="{&quot;origPos&quot;:null}" fill="#747474"/></g></g><g data-paper-data="{&quot;origPos&quot;:null}" stroke="none" stroke-width="0" stroke-linecap="butt"><g data-paper-data="{&quot;origPos&quot;:null}"><path d="M9.92383,263.20967l-0.05291,-0.90929l5.50723,-1.47962l4.37579,1.15958l-0.16639,1.0656l-3.52992,1.49556z" data-paper-data="{&quot;origPos&quot;:null}" fill="#c0c0c0"/><path d="M9.92383,263.20967l0.09119,-0.9307l5.71001,1.39472l0.12577,0.84755z" data-paper-data="{&quot;origPos&quot;:null}" fill="#a0a0a0"/><path d="M15.86093,264.41783l-0.22918,-0.85769l4.329,-1.55953l0.03247,0.73401z" data-paper-data="{&quot;origPos&quot;:null}" fill="#747474"/></g><g data-paper-data="{&quot;origPos&quot;:null}"><path d="M16.88195,265.16246l-0.05291,-0.90929l5.50722,-1.47962l4.37579,1.15958l-0.16638,1.06558l-3.52993,1.49557z" data-paper-data="{&quot;origPos&quot;:null}" fill="#c0c0c0"/><path d="M16.88195,265.16246l0.09119,-0.93072l5.71001,1.39472l0.12576,0.84756z" data-paper-data="{&quot;origPos&quot;:null}" fill="#a0a0a0"/><path d="M22.81905,266.37062l-0.22918,-0.8577l4.329,-1.55952l0.03248,0.73401z" data-paper-data="{&quot;origPos&quot;:null}" fill="#747474"/></g><g data-paper-data="{&quot;origPos&quot;:null}"><path d="M24.15481,267.14609l-0.05291,-0.90929l5.50722,-1.47962l4.37579,1.15958l-0.16638,1.06558l-3.52993,1.49558z" data-paper-data="{&quot;origPos&quot;:null}" fill="#c0c0c0"/><path d="M24.15481,267.14609l0.09119,-0.9307l5.71001,1.39471l0.12577,0.84756z" data-paper-data="{&quot;origPos&quot;:null}" fill="#a0a0a0"/><path d="M30.09191,268.35426l-0.22919,-0.8577l4.329,-1.55953l0.03249,0.73402z" data-paper-data="{&quot;origPos&quot;:null}" fill="#747474"/></g></g><g data-paper-data="{&quot;origPos&quot;:null}" stroke="none" stroke-width="0" stroke-linecap="butt"><g data-paper-data="{&quot;origPos&quot;:null}"><path d="M17.87242,260.60913l-0.04934,-0.84785l5.1351,-1.37964l4.0801,1.08123l-0.15514,0.99359l-3.29139,1.3945z" data-paper-data="{&quot;origPos&quot;:null}" fill="#c0c0c0"/><path d="M17.87242,260.60913l0.08503,-0.86782l5.32417,1.30048l0.11726,0.79028z" data-paper-data="{&quot;origPos&quot;:null}" fill="#a0a0a0"/><path d="M23.40833,261.73564l-0.21369,-0.79973l4.03647,-1.45414l0.03029,0.68441z" data-paper-data="{&quot;origPos&quot;:null}" fill="#747474"/></g><g data-paper-data="{&quot;origPos&quot;:null}"><path d="M24.36037,262.42996l-0.04934,-0.84785l5.13509,-1.37963l4.0801,1.08123l-0.15514,0.99359l-3.2914,1.3945z" data-paper-data="{&quot;origPos&quot;:null}" fill="#c0c0c0"/><path d="M24.36037,262.42996l0.08504,-0.86782l5.32415,1.30047l0.11728,0.79029z" data-paper-data="{&quot;origPos&quot;:null}" fill="#a0a0a0"/><path d="M29.89628,263.55649l-0.21369,-0.79973l4.03647,-1.45416l0.0303,0.68442z" data-paper-data="{&quot;origPos&quot;:null}" fill="#747474"/></g><g data-paper-data="{&quot;origPos&quot;:null}"><path d="M31.14177,264.27955l-0.04933,-0.84784l5.13507,-1.37964l4.0801,1.08122l-0.15513,0.99359l-3.29141,1.3945z" data-paper-data="{&quot;origPos&quot;:null}" fill="#c0c0c0"/><path d="M31.14177,264.27955l0.08503,-0.86782l5.32416,1.30047l0.11727,0.79028z" data-paper-data="{&quot;origPos&quot;:null}" fill="#a0a0a0"/><path d="M36.67768,265.40607l-0.21369,-0.79975l4.03647,-1.45413l0.03029,0.68442z" data-paper-data="{&quot;origPos&quot;:null}" fill="#747474"/></g></g><g data-paper-data="{&quot;origPos&quot;:null}" stroke="none" stroke-width="0" stroke-linecap="butt"><g data-paper-data="{&quot;origPos&quot;:null}"><path d="M25.15559,257.9829l-0.04648,-0.79868l4.8374,-1.29967l3.84357,1.01855l-0.14615,0.93599l-3.1006,1.31367z" data-paper-data="{&quot;origPos&quot;:null}" fill="#c0c0c0"/><path d="M25.15559,257.9829l0.0801,-0.8175l5.01552,1.22508l0.11047,0.74447z" data-paper-data="{&quot;origPos&quot;:null}" fill="#a0a0a0"/><path d="M30.37058,259.04412l-0.2013,-0.75338l3.80247,-1.36985l0.02855,0.64474z" data-paper-data="{&quot;origPos&quot;:null}" fill="#747474"/></g><g data-paper-data="{&quot;origPos&quot;:null}"><path d="M31.26742,259.69818l-0.04648,-0.79869l4.8374,-1.29967l3.84358,1.01855l-0.14615,0.93599l-3.10059,1.31366z" data-paper-data="{&quot;origPos&quot;:null}" fill="#c0c0c0"/><path d="M31.26742,259.69818l0.0801,-0.81751l5.01552,1.22509l0.11046,0.74447z" data-paper-data="{&quot;origPos&quot;:null}" fill="#a0a0a0"/><path d="M36.48241,260.7594l-0.2013,-0.75338l3.80248,-1.36984l0.02853,0.64474z" data-paper-data="{&quot;origPos&quot;:null}" fill="#747474"/></g><g data-paper-data="{&quot;origPos&quot;:null}"><path d="M37.6557,261.44055l-0.04648,-0.7987l4.83739,-1.29965l3.84356,1.01854l-0.14614,0.93599l-3.1006,1.31367z" data-paper-data="{&quot;origPos&quot;:null}" fill="#c0c0c0"/><path d="M37.6557,261.44055l0.0801,-0.81751l5.0155,1.22509l0.11047,0.74447z" data-paper-data="{&quot;origPos&quot;:null}" fill="#a0a0a0"/><path d="M42.87068,262.50176l-0.2013,-0.75337l3.80248,-1.36984l0.02852,0.64474z" data-paper-data="{&quot;origPos&quot;:null}" fill="#747474"/></g></g><g data-paper-data="{&quot;origPos&quot;:null}" stroke="none" stroke-width="0" stroke-linecap="butt"><g data-paper-data="{&quot;origPos&quot;:null}"><path d="M31.60554,255.35405l-0.04505,-0.77412l4.68856,-1.25967l3.72531,0.98722l-0.14165,0.90718l-3.0052,1.27325z" data-paper-data="{&quot;origPos&quot;:null}" fill="#c0c0c0"/><path d="M31.60554,255.35405l0.07763,-0.79235l4.86119,1.18738l0.10707,0.72156z" data-paper-data="{&quot;origPos&quot;:null}" fill="#a0a0a0"/><path d="M36.66007,256.38261l-0.19511,-0.73019l3.68548,-1.3277l0.02765,0.62491z" data-paper-data="{&quot;origPos&quot;:null}" fill="#747474"/></g><g data-paper-data="{&quot;origPos&quot;:null}"><path d="M37.52931,257.01655l-0.04506,-0.77412l4.68855,-1.25967l3.72531,0.98721l-0.14165,0.90718l-3.0052,1.27324z" data-paper-data="{&quot;origPos&quot;:null}" fill="#c0c0c0"/><path d="M37.52931,257.01655l0.07764,-0.79236l4.86119,1.18738l0.10708,0.72157z" data-paper-data="{&quot;origPos&quot;:null}" fill="#a0a0a0"/><path d="M42.58384,258.04512l-0.19511,-0.7302l3.68547,-1.32769l0.02766,0.6249z" data-paper-data="{&quot;origPos&quot;:null}" fill="#747474"/></g><g data-paper-data="{&quot;origPos&quot;:null}"><path d="M43.72103,258.70531l-0.04505,-0.77413l4.68855,-1.25965l3.72531,0.9872l-0.14164,0.90719l-3.0052,1.27324z" data-paper-data="{&quot;origPos&quot;:null}" fill="#c0c0c0"/><path d="M43.72103,258.70531l0.07764,-0.79235l4.86119,1.18739l0.10706,0.72157z" data-paper-data="{&quot;origPos&quot;:null}" fill="#a0a0a0"/><path d="M48.77555,259.73387l-0.1951,-0.73021l3.68548,-1.3277l0.02765,0.62491z" data-paper-data="{&quot;origPos&quot;:null}" fill="#747474"/></g></g><g data-paper-data="{&quot;origPos&quot;:null}" stroke="none" stroke-width="0" stroke-linecap="butt"><g data-paper-data="{&quot;origPos&quot;:null}"><path d="M37.69026,253.04408l-0.04397,-0.75567l4.5769,-1.22968l3.63661,0.96371l-0.13828,0.88558l-2.93362,1.24293z" data-paper-data="{&quot;origPos&quot;:null}" fill="#c0c0c0"/><path d="M37.69026,253.04408l0.07579,-0.77348l4.74544,1.15911l0.10452,0.70438z" data-paper-data="{&quot;origPos&quot;:null}" fill="#a0a0a0"/><path d="M42.62443,254.04815l-0.19046,-0.7128l3.5977,-1.29608l0.027,0.61002z" data-paper-data="{&quot;origPos&quot;:null}" fill="#747474"/></g><g data-paper-data="{&quot;origPos&quot;:null}"><path d="M43.47298,254.66699l-0.04398,-0.75568l4.5769,-1.22967l3.63661,0.9637l-0.13828,0.88558l-2.93364,1.24293z" data-paper-data="{&quot;origPos&quot;:null}" fill="#c0c0c0"/><path d="M43.47298,254.66699l0.07579,-0.77349l4.74542,1.15911l0.10453,0.70438z" data-paper-data="{&quot;origPos&quot;:null}" fill="#a0a0a0"/><path d="M48.40714,255.67107l-0.19047,-0.71282l3.5977,-1.29607l0.02701,0.61002z" data-paper-data="{&quot;origPos&quot;:null}" fill="#747474"/></g><g data-paper-data="{&quot;origPos&quot;:null}"><path d="M49.51726,256.31554l-0.04397,-0.75568l4.57691,-1.22967l3.6366,0.9637l-0.13826,0.88558l-2.93364,1.24293z" data-paper-data="{&quot;origPos&quot;:null}" fill="#c0c0c0"/><path d="M49.51726,256.31554l0.07579,-0.7735l4.74542,1.15912l0.10452,0.70438z" data-paper-data="{&quot;origPos&quot;:null}" fill="#a0a0a0"/><path d="M54.45141,257.31961l-0.19046,-0.71281l3.5977,-1.29607l0.02699,0.61002z" data-paper-data="{&quot;origPos&quot;:null}" fill="#747474"/></g></g><g data-paper-data="{&quot;origPos&quot;:null}" stroke="none" stroke-width="0" stroke-linecap="butt"><g data-paper-data="{&quot;origPos&quot;:null}"><path d="M43.77886,250.65547l-0.04147,-0.71268l4.3164,-1.15968l3.42961,0.90885l-0.13041,0.83517l-2.76664,1.17218z" data-paper-data="{&quot;origPos&quot;:null}" fill="#c0c0c0"/><path d="M43.77886,250.65547l0.07147,-0.72946l4.47533,1.09314l0.09857,0.66429z" data-paper-data="{&quot;origPos&quot;:null}" fill="#a0a0a0"/><path d="M48.43218,251.60239l-0.17963,-0.67222l3.39294,-1.22231l0.02547,0.5753z" data-paper-data="{&quot;origPos&quot;:null}" fill="#747474"/></g><g data-paper-data="{&quot;origPos&quot;:null}"><path d="M49.23242,252.186l-0.04147,-0.71267l4.3164,-1.15968l3.4296,0.90886l-0.1304,0.83517l-2.76665,1.17219z" data-paper-data="{&quot;origPos&quot;:null}" fill="#c0c0c0"/><path d="M49.23242,252.186l0.07147,-0.72946l4.47532,1.09313l0.09858,0.6643z" data-paper-data="{&quot;origPos&quot;:null}" fill="#a0a0a0"/><path d="M53.88574,253.13293l-0.17963,-0.67224l3.39294,-1.2223l0.02547,0.57531z" data-paper-data="{&quot;origPos&quot;:null}" fill="#747474"/></g><g data-paper-data="{&quot;origPos&quot;:null}"><path d="M54.93267,253.74072l-0.04147,-0.71267l4.31639,-1.15968l3.42961,0.90884l-0.1304,0.83517l-2.76665,1.17218z" data-paper-data="{&quot;origPos&quot;:null}" fill="#c0c0c0"/><path d="M54.93267,253.74072l0.07147,-0.72947l4.47532,1.09315l0.09856,0.66428z" data-paper-data="{&quot;origPos&quot;:null}" fill="#a0a0a0"/><path d="M59.58598,254.68764l-0.17962,-0.67224l3.39294,-1.2223l0.02546,0.57529z" data-paper-data="{&quot;origPos&quot;:null}" fill="#747474"/></g></g><g data-paper-data="{&quot;origPos&quot;:null}" stroke="none" stroke-width="0" stroke-linecap="butt"><g data-paper-data="{&quot;origPos&quot;:null}"><path d="M50.17056,248.55247l-0.03755,-0.64508l3.90702,-1.04969l3.10434,0.82265l-0.11804,0.75596l-2.50425,1.061z" data-paper-data="{&quot;origPos&quot;:null}" fill="#c0c0c0"/><path d="M50.17056,248.55247l0.0647,-0.66028l4.05087,0.98947l0.08924,0.60127z" data-paper-data="{&quot;origPos&quot;:null}" fill="#a0a0a0"/><path d="M54.38255,249.40958l-0.16259,-0.60847l3.07115,-1.10638l0.02305,0.52073z" data-paper-data="{&quot;origPos&quot;:null}" fill="#747474"/></g><g data-paper-data="{&quot;origPos&quot;:null}"><path d="M55.1069,249.93785l-0.03755,-0.64508l3.90704,-1.0497l3.10433,0.82267l-0.11803,0.75596l-2.50426,1.06101z" data-paper-data="{&quot;origPos&quot;:null}" fill="#c0c0c0"/><path d="M55.1069,249.93785l0.0647,-0.66027l4.05088,0.98945l0.08922,0.60129z" data-paper-data="{&quot;origPos&quot;:null}" fill="#a0a0a0"/><path d="M59.31888,250.79496l-0.16258,-0.60849l3.07115,-1.10638l0.02305,0.52074z" data-paper-data="{&quot;origPos&quot;:null}" fill="#747474"/></g><g data-paper-data="{&quot;origPos&quot;:null}"><path d="M60.26652,251.34512l-0.03755,-0.64509l3.90702,-1.04969l3.10433,0.82264l-0.11803,0.75596l-2.50426,1.06101z" data-paper-data="{&quot;origPos&quot;:null}" fill="#c0c0c0"/><path d="M60.26652,251.34512l0.0647,-0.66029l4.05088,0.98947l0.08922,0.60128z" data-paper-data="{&quot;origPos&quot;:null}" fill="#a0a0a0"/><path d="M64.4785,252.20223l-0.16258,-0.60849l3.07115,-1.10638l0.02305,0.52074z" data-paper-data="{&quot;origPos&quot;:null}" fill="#747474"/></g></g><g data-paper-data="{&quot;origPos&quot;:null}" stroke="none" stroke-width="0" stroke-linecap="butt"><g data-paper-data="{&quot;origPos&quot;:null}"><path d="M54.91205,246.27835l-0.03646,-0.62664l3.79538,-1.0197l3.01563,0.79915l-0.11467,0.73436l-2.4327,1.03069z" data-paper-data="{&quot;origPos&quot;:null}" fill="#c0c0c0"/><path d="M54.91205,246.27835l0.06284,-0.6414l3.93513,0.96119l0.08668,0.58409z" data-paper-data="{&quot;origPos&quot;:null}" fill="#a0a0a0"/><path d="M59.00369,247.11097l-0.15795,-0.59108l2.98338,-1.07476l0.0224,0.50584z" data-paper-data="{&quot;origPos&quot;:null}" fill="#747474"/></g><g data-paper-data="{&quot;origPos&quot;:null}"><path d="M59.70733,247.62414l-0.03648,-0.62665l3.79539,-1.0197l3.01562,0.79915l-0.11467,0.73436l-2.43269,1.03069z" data-paper-data="{&quot;origPos&quot;:null}" fill="#c0c0c0"/><path d="M59.70733,247.62414l0.06285,-0.6414l3.93512,0.96119l0.08668,0.5841z" data-paper-data="{&quot;origPos&quot;:null}" fill="#a0a0a0"/><path d="M63.79896,248.45677l-0.15794,-0.5911l2.98338,-1.07476l0.02239,0.50585z" data-paper-data="{&quot;origPos&quot;:null}" fill="#747474"/></g><g data-paper-data="{&quot;origPos&quot;:null}"><path d="M64.71951,248.99119l-0.03646,-0.62664l3.79537,-1.0197l3.01563,0.79914l-0.11466,0.73435l-2.43269,1.03069z" data-paper-data="{&quot;origPos&quot;:null}" fill="#c0c0c0"/><path d="M64.71951,248.99119l0.06285,-0.6414l3.93512,0.96119l0.08666,0.5841z" data-paper-data="{&quot;origPos&quot;:null}" fill="#a0a0a0"/><path d="M68.81113,249.82382l-0.15794,-0.5911l2.98339,-1.07476l0.02239,0.50586z" data-paper-data="{&quot;origPos&quot;:null}" fill="#747474"/></g></g><path d="M37.85647,261.01367l15.42566,-7.02926l0.93357,2.43598l-11.76356,5.54597z" data-paper-data="{&quot;origPos&quot;:null}" fill="#c0c0c0" stroke="none" stroke-width="0" stroke-linecap="butt"/><path d="M57.13304,255.70145l-13.68566,6.36243" data-paper-data="{&quot;origPos&quot;:null}" fill="none" stroke="#747474" stroke-width="1" stroke-linecap="round"/></g></g></g></svg>