<svg version="1.1" xmlns="http://www.w3.org/2000/svg" xmlns:xlink="http://www.w3.org/1999/xlink" width="29.20423" height="25.88284" viewBox="0,0,29.20423,25.88284"><g transform="translate(-238.15289,-218.90002)"><g data-paper-data="{&quot;isPaintingLayer&quot;:true}" fill="none" fill-rule="nonzero" stroke="none" stroke-width="none" stroke-linecap="none" stroke-linejoin="miter" stroke-miterlimit="10" stroke-dasharray="" stroke-dashoffset="0" font-family="none" font-weight="none" font-size="none" text-anchor="none" style="mix-blend-mode: normal"><path d="M240.08571,227.22859v-6.57143" data-paper-data="{&quot;origPos&quot;:null}" fill="none" stroke="#12ff00" stroke-width="3.5" stroke-linecap="round"/><path d="M265.4,220.40002v8.85714" data-paper-data="{&quot;origPos&quot;:null}" fill="none" stroke="#12ff00" stroke-width="3" stroke-linecap="round"/><path d="M248.17389,244.09633c-0.434,-0.20558 -1.28073,-1.58487 -1.6384,-2.85398l-0.4689,-0.1563l-0.15181,-0.09661l-0.17566,-0.03903l-0.04026,-0.02013l-0.30519,-0.0763l-0.3775,-0.20133l-0.40291,-0.1439l-0.42857,-0.28571l-0.13336,-0.1467l-0.46937,-0.29869l-0.49257,-0.29554l-0.04926,-0.04926l-0.06058,-0.03855l-0.00515,-0.02574l-0.21829,-0.14552l-0.33018,-0.3632l-0.3632,-0.33018l-0.1484,-0.2226l-0.11067,-0.11067l-0.20676,-0.34461l-0.26154,-0.30513l-0.06991,-0.13982l-0.02438,-0.01393l-0.01742,-0.06966l-0.03115,-0.06231l-0.02935,-0.13206l-0.02241,-0.03735l0.00777,-0.0285l-0.08063,-0.36284l-0.13932,-0.55728v-0.06966l-0.01558,-0.07009l0.01558,-0.02336v-2.35226c-2.02103,-2.92987 -3.67621,-6.49617 -2.22597,-7.32488c0.43488,-0.73685 1.23698,-1.23117 2.15454,-1.23117c0.71846,0 1.36614,0.30307 1.82216,0.78834c0.02788,-0.00695 0.05595,-0.01343 0.0842,-0.01943l0.00002,-0.00003l0.02811,-0.02515l0.07393,0.00569c0.13661,-0.02312 0.27699,-0.03516 0.42018,-0.03516c0.20088,0 0.39623,0.02369 0.5834,0.06844l0.27374,-0.06844h0.32388l0.47154,-0.09431l0.24872,0.01184l0.24157,-0.06039h0.40652l0.84428,-0.21107h0.30776l0.29857,-0.07464h0.16573l0.0437,-0.01457l0.09774,-0.00752l0.08649,-0.04613l0.57143,-0.14286h0.30776l0.29857,-0.07464h4.32388l0.47154,-0.09431l0.24872,0.01184l0.24157,-0.06039h3.83688l0.02336,-0.01558l0.07009,0.01558h0.06966l0.55728,0.13932l0.01592,0.00354h0.85537l0.38988,0.09747l0.40069,0.03082l0.0437,0.01457h0.02288l1.25,0.3125l0.04898,0.08571l0.09857,0.00548l0.83853,0.97828l0.07325,0.1465l0.19938,0.29907l0.03383,0.09473l0.07354,0.04202l0.04825,0.19301c0.45213,-0.45035 1.07568,-0.72873 1.76425,-0.72873c1.38071,0 2.5,1.11929 2.5,2.5c0,0.64182 -0.24186,1.22715 -0.63941,1.66983c-0.4278,2.18308 -2.19643,4.53382 -3.93203,5.9896v0.05486l-0.09747,0.38988l-0.03082,0.40069l-0.11429,0.34286l-0.02857,0.37143l-0.14286,0.42857l-0.09661,0.15181l-0.03004,0.13518l0.04276,0.15678l-0.16527,0.27545l-0.07791,0.31164l-0.16598,0.09485l-0.25375,0.42292l-0.19172,0.19172l-0.03009,0.0351l-0.12358,0.20597c-0.29735,4.32105 -10.3139,4.6467 -13.1056,3.32432zM256.21306,229.92859l-0.03279,0.19671l-0.09333,0.21467l0.49365,-0.41138z" fill="#12ff00" stroke="none" stroke-width="0.5" stroke-linecap="butt"/></g></g></svg>