<svg version="1.1" xmlns="http://www.w3.org/2000/svg" xmlns:xlink="http://www.w3.org/1999/xlink" width="51.60462" height="58.3512" viewBox="0,0,51.60462,58.3512"><defs><linearGradient x1="205.54287" y1="175.99339" x2="233.53313" y2="175.99339" gradientUnits="userSpaceOnUse" id="color-1"><stop offset="0" stop-color="#d05d00"/><stop offset="1" stop-color="#f87000"/></linearGradient></defs><g transform="translate(-204.47308,-172.28553)"><g data-paper-data="{&quot;isPaintingLayer&quot;:true}" fill="none" fill-rule="nonzero" stroke="none" stroke-width="none" stroke-linecap="none" stroke-linejoin="miter" stroke-miterlimit="10" stroke-dasharray="" stroke-dashoffset="0" font-family="none" font-weight="none" font-size="none" text-anchor="none" style="mix-blend-mode: normal"><path d="" data-paper-data="{&quot;origPos&quot;:null}" fill="#dadada" stroke="none" stroke-width="0" stroke-linecap="butt"/><path d="" data-paper-data="{&quot;origPos&quot;:null}" fill="#7b7b7b" stroke="none" stroke-width="0" stroke-linecap="butt"/><path d="" data-paper-data="{&quot;origPos&quot;:null}" fill="#bdbdbd" stroke="none" stroke-width="0" stroke-linecap="butt"/><path d="M207.59746,230.63673v-35.18605h20.43745v35.18605z" data-paper-data="{&quot;origPos&quot;:null}" fill="#b5b5b5" stroke="#3d3d3d" stroke-width="0" stroke-linecap="butt"/><path d="M208.7279,198.14437v-20.46787h21.08017v20.46788z" data-paper-data="{&quot;origPos&quot;:null}" fill="#3e3e3e" stroke="none" stroke-width="0" stroke-linecap="butt"/><path d="M232.8712,178.31015c0,1.41007 -5.8848,2.55317 -13.14408,2.55317c-7.25927,0 -13.14408,-1.14309 -13.14408,-2.55317c0,-1.41007 5.88481,-2.55317 13.14408,-2.55317c7.25927,0 13.14408,1.14309 13.14408,2.55317z" data-paper-data="{&quot;origPos&quot;:null}" fill="#b45100" stroke="none" stroke-width="0" stroke-linecap="butt"/><path d="M219.20064,180.95533c-7.72931,0 -13.65777,-3.52575 -13.65777,-4.96194c0,-1.43618 6.26584,-2.60044 13.99513,-2.60044c7.72931,0 13.99513,1.16425 13.99513,2.60044c0,1.43618 -6.6032,4.96194 -14.33249,4.96194z" data-paper-data="{&quot;origPos&quot;:null}" fill="url(#color-1)" stroke="none" stroke-width="0" stroke-linecap="butt"/><path d="M228.64081,194.8026v-11.42873l18.74805,1.90488c-0.10995,2.53342 8.12564,-0.50675 8.12564,-0.50675l-8.23606,10.03061z" data-paper-data="{&quot;origPos&quot;:null}" fill="#afaba6" stroke="none" stroke-width="0" stroke-linecap="butt"/><path d="M224.85023,208.84758l3.12612,-25.47371l0.39867,11.42873l18.95032,-0.1255c-0.03518,0.06194 -0.05527,0.13356 -0.05527,0.20988c0,0.03413 0.00401,0.0673 0.0116,0.09911z" data-paper-data="{&quot;origPos&quot;:null}" fill="#a09c98" stroke="none" stroke-width="0" stroke-linecap="butt"/><path d="M205.97308,175.84255c0,0 2.84181,-1.97932 13.74155,-2.05706c10.41419,-0.07427 13.62351,2.05706 13.62351,2.05706" data-paper-data="{&quot;origPos&quot;:null,&quot;index&quot;:null}" fill="none" stroke="#c15700" stroke-width="3" stroke-linecap="round"/><path d="M241.40775,189.55756c-8.10199,0 -14.66996,-2.85188 -14.66996,-6.36985c0,-3.51797 6.56796,-6.36984 14.66996,-6.36984c8.10199,0 14.66995,2.85187 14.66995,6.36984c0,3.51797 -6.56796,6.36985 -14.66995,6.36985z" data-paper-data="{&quot;origPos&quot;:null}" fill="#afaba6" stroke="none" stroke-width="NaN" stroke-linecap="butt"/></g></g></svg>