<svg version="1.1" xmlns="http://www.w3.org/2000/svg" xmlns:xlink="http://www.w3.org/1999/xlink" width="67.17693" height="71.65069" viewBox="0,0,67.17693,71.65069"><defs><linearGradient x1="201.66327" y1="168.77783" x2="238.35279" y2="168.77783" gradientUnits="userSpaceOnUse" id="color-1"><stop offset="0" stop-color="#d05d00"/><stop offset="1" stop-color="#f87000"/></linearGradient></defs><g transform="translate(-200.72719,-164.38374)"><g data-paper-data="{&quot;isPaintingLayer&quot;:true}" fill="none" fill-rule="nonzero" stroke="none" stroke-width="none" stroke-linecap="none" stroke-linejoin="miter" stroke-miterlimit="10" stroke-dasharray="" stroke-dashoffset="0" font-family="none" font-weight="none" font-size="none" text-anchor="none" style="mix-blend-mode: normal"><path d="" data-paper-data="{&quot;origPos&quot;:null}" fill="#dadada" stroke="none" stroke-width="0" stroke-linecap="butt"/><path d="" data-paper-data="{&quot;origPos&quot;:null}" fill="#7b7b7b" stroke="none" stroke-width="0" stroke-linecap="butt"/><path d="" data-paper-data="{&quot;origPos&quot;:null}" fill="#bdbdbd" stroke="none" stroke-width="0" stroke-linecap="butt"/><path d="M205.57332,236.03444v-40.58375h23.81101v40.58375z" data-paper-data="{&quot;origPos&quot;:null}" fill="#b5b5b5" stroke="#3d3d3d" stroke-width="0" stroke-linecap="butt"/><path d="M205.8382,197.81323v-26.8292h27.63179v26.82921z" data-paper-data="{&quot;origPos&quot;:null}" fill="#3e3e3e" stroke="none" stroke-width="0" stroke-linecap="butt"/><path d="M237.48513,171.81462c0,1.84832 -7.71377,3.34668 -17.2292,3.34668c-9.51542,0 -17.2292,-1.49836 -17.2292,-3.34668c0,-1.84832 7.71378,-3.34668 17.2292,-3.34668c9.51542,0 17.2292,1.49836 17.2292,3.34668z" data-paper-data="{&quot;origPos&quot;:null}" fill="#b45100" stroke="none" stroke-width="0" stroke-linecap="butt"/><path d="M220.00803,177.07815c-10.13154,0 -18.34476,-6.41778 -18.34476,-8.30033c0,-1.88254 8.21323,-3.40865 18.34476,-3.40865c10.13154,0 18.34476,1.5261 18.34476,3.40865c0,1.88254 -8.21323,8.30033 -18.34476,8.30033z" data-paper-data="{&quot;origPos&quot;:null}" fill="url(#color-1)" stroke="none" stroke-width="0" stroke-linecap="butt"/><path d="M231.93995,194.96382v-14.98073l24.57487,2.49691c-0.14412,3.3208 10.65105,-0.66424 10.65105,-0.66424l-10.79579,13.14808z" data-paper-data="{&quot;origPos&quot;:null}" fill="#afaba6" stroke="none" stroke-width="0" stroke-linecap="butt"/><path d="M222.29122,212.26196l8.77776,-32.27889l0.52258,14.98073l24.84,-0.1645c-0.04611,0.08119 -0.07245,0.17507 -0.07245,0.27511c0,0.04474 0.00526,0.08822 0.01521,0.12991z" data-paper-data="{&quot;origPos&quot;:null}" fill="#a09c98" stroke="none" stroke-width="0" stroke-linecap="butt"/><path d="M202.22719,168.58009c0,0 3.72503,-2.59449 18.01236,-2.69638c13.65087,-0.09735 17.85764,2.69638 17.85764,2.69638" data-paper-data="{&quot;origPos&quot;:null,&quot;index&quot;:null}" fill="none" stroke="#c15700" stroke-width="3" stroke-linecap="round"/><path d="M248.67481,188.08864c-10.62006,0 -19.22932,-3.73823 -19.22932,-8.34957c0,-4.61134 8.60926,-8.34956 19.22932,-8.34956c10.62006,0 19.22931,3.73822 19.22931,8.34956c0,4.61134 -8.60925,8.34957 -19.22931,8.34957z" data-paper-data="{&quot;origPos&quot;:null}" fill="#afaba6" stroke="none" stroke-width="NaN" stroke-linecap="butt"/></g></g></svg>