<svg version="1.1" xmlns="http://www.w3.org/2000/svg" xmlns:xlink="http://www.w3.org/1999/xlink" width="30.36506" height="58.3512" viewBox="0,0,30.36506,58.3512"><defs><linearGradient x1="205.54287" y1="175.9934" x2="233.53313" y2="175.9934" gradientUnits="userSpaceOnUse" id="color-1"><stop offset="0" stop-color="#d05d00"/><stop offset="1" stop-color="#f87000"/></linearGradient></defs><g transform="translate(-204.47308,-172.28553)"><g data-paper-data="{&quot;isPaintingLayer&quot;:true}" fill="none" fill-rule="nonzero" stroke="none" stroke-width="none" stroke-linecap="none" stroke-linejoin="miter" stroke-miterlimit="10" stroke-dasharray="" stroke-dashoffset="0" font-family="none" font-weight="none" font-size="none" text-anchor="none" style="mix-blend-mode: normal"><path d="" data-paper-data="{&quot;origPos&quot;:null}" fill="#dadada" stroke="none" stroke-width="0" stroke-linecap="butt"/><path d="" data-paper-data="{&quot;origPos&quot;:null}" fill="#7b7b7b" stroke="none" stroke-width="0" stroke-linecap="butt"/><path d="" data-paper-data="{&quot;origPos&quot;:null}" fill="#bdbdbd" stroke="none" stroke-width="0" stroke-linecap="butt"/><path d="M207.59746,230.63674v-35.18605h20.43745v35.18605z" data-paper-data="{&quot;origPos&quot;:null}" fill="#b5b5b5" stroke="#3d3d3d" stroke-width="0" stroke-linecap="butt"/><path d="M208.7279,198.14438v-20.46787h21.08017v20.46788z" data-paper-data="{&quot;origPos&quot;:null}" fill="#3e3e3e" stroke="none" stroke-width="0" stroke-linecap="butt"/><path d="M232.8712,178.31016c0,1.41007 -5.8848,2.55317 -13.14408,2.55317c-7.25927,0 -13.14408,-1.14309 -13.14408,-2.55317c0,-1.41007 5.88481,-2.55317 13.14408,-2.55317c7.25927,0 13.14408,1.14309 13.14408,2.55317z" data-paper-data="{&quot;origPos&quot;:null}" fill="#b45100" stroke="none" stroke-width="0" stroke-linecap="butt"/><path d="M219.20064,180.95534c-7.72931,0 -13.65777,-3.52575 -13.65777,-4.96194c0,-1.43618 6.26584,-2.60044 13.99513,-2.60044c7.72931,0 13.99513,1.16425 13.99513,2.60044c0,1.43618 -6.6032,4.96194 -14.33249,4.96194z" data-paper-data="{&quot;origPos&quot;:null}" fill="url(#color-1)" stroke="none" stroke-width="0" stroke-linecap="butt"/><path d="M205.97308,175.84256c0,0 2.84181,-1.97932 13.74155,-2.05706c10.41419,-0.07427 13.62351,2.05706 13.62351,2.05706" data-paper-data="{&quot;origPos&quot;:null,&quot;index&quot;:null}" fill="none" stroke="#c15700" stroke-width="3" stroke-linecap="round"/></g></g></svg>