<svg version="1.1" xmlns="http://www.w3.org/2000/svg" xmlns:xlink="http://www.w3.org/1999/xlink" width="39.43572" height="29.63627"><g transform="translate(-233.63571,-212.60716)"><g data-paper-data="{&quot;isPaintingLayer&quot;:true}" fill="none" fill-rule="nonzero" stroke="none" stroke-width="none" stroke-linecap="none" stroke-linejoin="miter" stroke-miterlimit="10" stroke-dasharray="" stroke-dashoffset="0" font-family="none" font-weight="none" font-size="none" text-anchor="none" style="mix-blend-mode: normal"><path d="M235.88571,221.42859v-6.57143" data-paper-data="{&quot;origPos&quot;:null}" fill="none" stroke="#12ff00" stroke-width="4.5" stroke-linecap="round"/><path d="M270.8,215.20002v8.85714" data-paper-data="{&quot;origPos&quot;:null}" fill="none" stroke="#12ff00" stroke-width="4.5" stroke-linecap="round"/><path d="M265.95346,238.39756c-0.98987,0.9216 -3.15389,0.92068 -3.7893,1.54527c-1.07497,1.05665 -2.58674,2.24496 -4.16415,2.27148c-4.00308,0.06729 -5.02172,0.08158 -8.11803,-0.6925c-0.82347,-0.20587 -0.49239,-2.15516 -1.34115,-2.16464c-7.10577,-0.07936 -8.82459,-3.47737 -11.89725,-9.6227c-0.18291,-0.34741 -0.28642,-0.74312 -0.28642,-1.16302c0,-0.04426 0.00115,-0.08825 0.00342,-0.13194c-0.81145,-1.11937 -1.45148,-2.04354 -1.73949,-2.46434c-0.47137,-0.68869 -1.01724,-3.06512 -0.20419,-3.52973c0.43488,-0.73685 1.23698,-1.23117 2.15454,-1.23117c0.00876,0 0.01751,0.00005 0.02625,0.00013c0.28548,-0.60102 0.8037,-1.07007 1.4382,-1.29066v0.00003l0.02456,-0.02819l0.07299,-0.00348c0.22909,-0.06917 0.47207,-0.10636 0.72373,-0.10636c0.18573,0 0.36673,0.02025 0.54091,0.05867l0.42092,0.08418h1.03817l0.17457,0.04364l0.17899,-0.01852l0.82412,0.11773h0.67947l0.20271,0.05068l0.20829,-0.01666l0.65305,0.10884h6.18685l0.82412,-0.11773l0.17899,0.01852l0.17457,-0.04364h0.60959l1.18583,-0.23717l0.24872,0.01184l0.24157,-0.06039h0.30859l0.0437,-0.01457l0.40069,-0.03082l0.38988,-0.09747h0.02288l0.0437,-0.01457l0.40069,-0.03082l0.38988,-0.09747h0.16573l0.0437,-0.01457l0.40069,-0.03082l0.38988,-0.09747h0.88002l0.0437,-0.01457l0.40069,-0.03082l0.38988,-0.09747h0.71252l0.01592,-0.00354l0.55728,-0.13932h0.06966l0.07009,-0.01558l0.02336,0.01558h0.38626l0.27285,-0.06821h0.30776l0.29857,-0.07464h0.32388l0.47154,-0.09431l0.24872,0.01184l0.24157,-0.06039h0.97795l0.27285,-0.06821h0.30776l0.29857,-0.07464h2.40831l0.02336,-0.01558l0.07009,0.01558h0.06966l0.55728,0.13932l0.56075,0.12461l0.06231,0.03115l0.06966,0.01742l0.01393,0.02438l0.13982,0.06991l0.97828,0.83853l0.00548,0.09857l0.08571,0.04898l0.3125,1.25v0.32388l0.09431,0.47154l-0.01184,0.24872l0.03439,0.13754c0.3313,-0.16212 0.70373,-0.25312 1.09743,-0.25312c1.38071,0 2.5,1.11929 2.5,2.5c0,0.48271 -0.13681,0.93346 -0.37376,1.31561c-0.07225,2.53554 -2.41793,5.17798 -4.65329,7.23005c-0.50797,1.79223 -0.54734,3.70048 -2.09092,5.13761zM254.14286,224.78573h-0.28513l0.12956,0.11105l0.12453,0.00692l0.0513,0.05985l0.11994,-0.10904l0.12216,-0.13438z" fill="#12ff00" stroke="none" stroke-width="0.5" stroke-linecap="butt"/></g></g></svg>