<svg version="1.1" xmlns="http://www.w3.org/2000/svg" xmlns:xlink="http://www.w3.org/1999/xlink" width="36.09091" height="20.00806"><g transform="translate(-222,-170)"><g data-paper-data="{&quot;isPaintingLayer&quot;:true}" fill="none" fill-rule="nonzero" stroke="none" stroke-width="none" stroke-linecap="butt" stroke-linejoin="miter" stroke-miterlimit="10" stroke-dasharray="" stroke-dashoffset="0" font-family="none" font-weight="none" font-size="none" text-anchor="none" style="mix-blend-mode: normal"><path d="M223.27273,189.09091c-0.84292,-0.88075 -1.27273,-1.41899 -1.27273,-2.90909c0,-4.47028 0,-7.37228 0,-12.09091c0,-1.20609 0.37335,-2.19741 0.81818,-2.72728c0.4756,-0.56651 1.6762,-1.36363 3.27273,-1.36363c10.92736,0 23.31684,0 28,0c1.20585,0 2.47619,0.45831 3,1c0.64642,0.66849 1,1.49438 1,3.09091c0,4.68315 0,7.31685 0,12c0,1.52558 -0.05793,2.05793 -0.90909,2.90909c-0.85115,0.85116 -1.47442,1 -3,1c-4.57672,0 -17.12807,0 -28.09091,0c0,0 -1.79846,0.1564 -2.81818,-0.90909z" data-paper-data="{&quot;origPos&quot;:null}" fill="#a5a5a5" stroke="none" stroke-width="0"/><g data-paper-data="{&quot;origPos&quot;:null}" stroke-width="1.5"><path d="M236.15231,185.50403c0,0 2.20262,-1.91787 2.20262,-3.66697c0,-1.43509 -1.53127,-1.40755 -1.95635,-2.76956c-0.49265,-1.57852 -0.24627,-4.76811 -0.24627,-4.76811h7.56552c0,0 0.22768,2.8376 -0.29068,4.35104c-0.49008,1.43089 -2.10348,1.66375 -2.10348,3.18662c0,1.19257 2.39415,3.66697 2.39415,3.66697z" data-paper-data="{&quot;origPos&quot;:null}" fill="#3c3c3c" stroke="#3c3c3c"/><path d="M242.08981,176.98084c0,-1.0578 0.85752,-1.91532 1.91532,-1.91532c1.0578,0 1.91532,0.85752 1.91532,1.91532c0,1.0578 -0.85752,1.91532 -1.91532,1.91532c-1.0578,0 -1.91532,-0.85752 -1.91532,-1.91532z" data-paper-data="{&quot;origPos&quot;:null}" fill="none" stroke="#3c3c3c"/><path d="M234.04546,177.17237c0,-1.0578 0.85752,-1.91532 1.91532,-1.91532c1.0578,0 1.91532,0.85752 1.91532,1.91532c0,1.0578 -0.85752,1.91532 -1.91532,1.91532c-1.0578,0 -1.91532,-0.85752 -1.91532,-1.91532z" data-paper-data="{&quot;origPos&quot;:null}" fill="none" stroke="#3c3c3c"/></g></g></g></svg>