<svg version="1.1" xmlns="http://www.w3.org/2000/svg" xmlns:xlink="http://www.w3.org/1999/xlink" width="76.89889" height="74.58392"><g transform="translate(-218.66982,-159.71217)"><g data-paper-data="{&quot;isPaintingLayer&quot;:true}" fill="none" fill-rule="nonzero" stroke="none" stroke-width="none" stroke-linecap="none" stroke-linejoin="miter" stroke-miterlimit="10" stroke-dasharray="" stroke-dashoffset="0" font-family="none" font-weight="none" font-size="none" text-anchor="none" style="mix-blend-mode: normal"><path d="M218.66982,234.29609v-38.50002h37.00498v38.50002z" data-paper-data="{&quot;origPos&quot;:null}" fill="#b5b5b5" stroke="#3d3d3d" stroke-width="0" stroke-linecap="butt"/><path d="" data-paper-data="{&quot;origPos&quot;:null}" fill="#afaba6" stroke="none" stroke-width="0" stroke-linecap="butt"/><path d="" data-paper-data="{&quot;origPos&quot;:null}" fill="#afaba6" stroke="none" stroke-width="0" stroke-linecap="butt"/><path d="M295.2425,187.49684c0,-0.01005 0,-0.0201 0,-0.03016c0.00548,0.00072 0.01102,0.00126 0.01661,0.00161z" data-paper-data="{&quot;origPos&quot;:null}" fill="#afaba6" stroke="none" stroke-width="0" stroke-linecap="butt"/><path d="" data-paper-data="{&quot;origPos&quot;:null}" fill="#afaba6" stroke="none" stroke-width="0" stroke-linecap="butt"/><path d="" data-paper-data="{&quot;origPos&quot;:null}" fill="#afaba6" stroke="none" stroke-width="0" stroke-linecap="butt"/><path d="M295.56265,159.71217c0.002,0.01454 0.00402,0.02911 0.00606,0.0437l-0.03271,0.13084c0.00791,-0.06059 0.01683,-0.11903 0.02665,-0.17454z" data-paper-data="{&quot;origPos&quot;:null}" fill="#afaba6" stroke="none" stroke-width="0" stroke-linecap="butt"/><path d="" data-paper-data="{&quot;origPos&quot;:null}" fill="#afaba6" stroke="none" stroke-width="0" stroke-linecap="butt"/><path d="" data-paper-data="{&quot;origPos&quot;:null}" fill="#afaba6" stroke="none" stroke-width="0" stroke-linecap="butt"/><path d="" data-paper-data="{&quot;origPos&quot;:null}" fill="#afaba6" stroke="none" stroke-width="0" stroke-linecap="butt"/><path d="M227.24533,198.03252l-5.21238,-36.48669c0,0 3.4809,5.29262 18.69269,5.39212c15.55494,0.10174 18.69269,-5.39212 18.69269,-5.39212l-4.49343,36.4867c0,0 -2.67439,2.51391 -14.19926,2.69606c-11.37194,0.17973 -13.48031,-2.69606 -13.48031,-2.69606z" data-paper-data="{&quot;origPos&quot;:null}" fill="#ee6a00" stroke="none" stroke-width="0" stroke-linecap="butt"/><path d="M229.90778,180.07938l-1.21872,-6.6561c0,0 1.61024,0.48077 2.60648,0.62408c0.13843,0.01991 0.2489,1.56364 0.38741,1.58298c0.26211,0.03659 0.37709,-1.47666 0.63958,-1.44283c2.81673,0.36309 4.63543,0.6203 6.70229,0.68281c0.15229,0.0046 -1.94667,2.25507 -1.7944,2.24978c0.4111,-0.01428 1.4995,-0.89502 1.76937,-1.20547c0.09736,-0.112 2.26613,1.05935 2.34975,0.93675c0.13252,-0.19431 -1.91809,-1.54786 -1.75977,-1.7218c0.16922,-0.18592 0.29408,-0.29216 0.54451,-0.31426c0.47185,-0.04162 0.73708,-0.07958 1.21077,-0.07958c2.68015,0 5.32597,-0.33568 7.98904,-0.63776c0.58372,-0.06622 1.92264,1.72069 2.50514,1.6445c0.59786,-0.07819 -1.77291,-1.69129 -1.17574,-1.7746c1.197,-0.16698 3.61877,-0.54462 3.61877,-0.54462c0,0 0.19027,3.70669 -0.27464,5.81248c-0.15705,0.71136 -1.31907,1.40611 -1.31907,1.40611c0,0 -1.37937,0.28193 -2.26453,0.45069c-0.53505,0.10201 -1.19435,-3.2628 -1.73083,-3.1686c-0.47634,0.08365 -0.11929,0.55973 -0.08092,1.04183c0.02629,0.33028 -3.38184,0.44765 -3.36298,0.77844c0.00958,0.16812 3.39839,0.16553 3.38185,0.33311c-0.05494,0.5568 1.35581,1.20549 0.80271,1.2899c-2.69941,0.412 -5.73311,0.77459 -8.46378,0.77459c0,0 -0.51146,-0.08621 -0.83881,-0.14142c-0.3521,-0.05938 0.06238,-0.23968 0.10018,-0.59474c0.05932,-0.55734 0.44931,-1.60786 -0.1036,-1.69969c-0.31372,-0.05211 -1.14234,2.10359 -1.45605,2.05144c-1.70881,-0.28408 -4.12813,-0.68464 -6.76538,-1.15156c-0.19934,-0.03529 0.63215,-0.56543 0.43416,-0.60765c-0.13668,-0.02914 -1.15894,0.47331 -1.29038,0.42581c-0.43798,-0.15825 -1.14236,-0.34464 -1.14236,-0.34464z" data-paper-data="{&quot;origPos&quot;:null}" fill="#dadada" stroke="none" stroke-width="0" stroke-linecap="butt"/><path d="M252.64338,180.58013v-1.40622h1.40622l-0.56249,0.84373z" data-paper-data="{&quot;origPos&quot;:null}" fill="#7b7b7b" stroke="none" stroke-width="0" stroke-linecap="butt"/><path d="M233.77343,180.91985l0.54182,-2.96961l1.27511,1.58643l0.49962,-1.93663l-1.39492,-1.73145l-1.73682,-1.53555l2.96732,0.35869l2.73907,7.10854z" data-paper-data="{&quot;origPos&quot;:null}" fill="#bdbdbd" stroke="none" stroke-width="0" stroke-linecap="butt"/><path d="M222.16713,161.98299l4.69001,35.6441" data-paper-data="{&quot;origPos&quot;:null}" fill="none" stroke="#d05e00" stroke-width="3" stroke-linecap="round"/><path d="M258.5929,161.98299c0,0 -4.27196,5.0435 -18.13432,4.86776c-14.5087,-0.18394 -18.29145,-4.86776 -18.29145,-4.86776" data-paper-data="{&quot;origPos&quot;:null}" fill="none" stroke="#d05e00" stroke-width="3" stroke-linecap="round"/><path d="M253.9008,197.93767l4.69001,-35.64409" data-paper-data="{&quot;origPos&quot;:null,&quot;index&quot;:null}" fill="none" stroke="#d05e00" stroke-width="3" stroke-linecap="round"/><path d="M253.9008,198.094c0,0 -3.11688,2.93972 -13.23105,2.83729c-10.58574,-0.10722 -13.34569,-2.83729 -13.34569,-2.83729" data-paper-data="{&quot;origPos&quot;:null}" fill="none" stroke="#d05e00" stroke-width="3" stroke-linecap="round"/><text transform="translate(233.07208,179.68526) scale(0.12737,0.12737)" font-size="40" xml:space="preserve" data-paper-data="{&quot;origPos&quot;:null}" fill="#535353" fill-rule="nonzero" stroke="none" stroke-width="1" stroke-linecap="butt" stroke-linejoin="miter" stroke-miterlimit="10" stroke-dasharray="" stroke-dashoffset="0" font-family="Sans Serif" font-weight="normal" text-anchor="start" style="mix-blend-mode: normal"><tspan x="0" dy="0">垃圾桶</tspan></text></g></g></svg>