<svg version="1.1" xmlns="http://www.w3.org/2000/svg" xmlns:xlink="http://www.w3.org/1999/xlink" width="128.11936" height="50.81818" viewBox="0,0,128.11936,50.81818"><g transform="translate(-183.81818,-153.09091)"><g data-paper-data="{&quot;isPaintingLayer&quot;:true}" fill-rule="nonzero" stroke="none" stroke-linecap="butt" stroke-linejoin="miter" stroke-miterlimit="10" stroke-dasharray="" stroke-dashoffset="0" style="mix-blend-mode: normal"><path d="M183.81818,203.90909v-50.81818h128.11936v50.81818z" data-paper-data="{&quot;origPos&quot;:null}" fill="#383838" stroke-width="0"/><g fill="#ffffff" stroke-width="0"><path d="M270.27108,176.55824h23.71507l-11.94669,12.83824z" data-paper-data="{&quot;origPos&quot;:null}"/><path d="M269.20123,172.5463c0,-4.08681 3.31301,-7.39982 7.39982,-7.39982c4.08681,0 7.39982,3.31301 7.39982,7.39982c0,4.08681 -3.31301,7.39982 -7.39982,7.39982c-4.08681,0 -7.39982,-3.31301 -7.39982,-7.39982z" data-paper-data="{&quot;origPos&quot;:null}"/><path d="M280.25638,172.5463c0,-4.08681 3.31301,-7.39982 7.39982,-7.39982c4.08681,0 7.39982,3.31301 7.39982,7.39982c0,4.08681 -3.31301,7.39982 -7.39982,7.39982c-4.08681,0 -7.39982,-3.31301 -7.39982,-7.39982z" data-paper-data="{&quot;origPos&quot;:null}"/></g><text transform="translate(199.31649,183.73498) scale(0.5,0.5)" font-size="40" xml:space="preserve" fill="#ffffff" fill-rule="nonzero" stroke="none" stroke-width="1" stroke-linecap="butt" stroke-linejoin="miter" stroke-miterlimit="10" stroke-dasharray="" stroke-dashoffset="0" font-family="Sans Serif" font-weight="normal" text-anchor="start" style="mix-blend-mode: normal"><tspan x="0" dy="0">扔垃圾</tspan></text></g></g></svg>