<svg version="1.1" xmlns="http://www.w3.org/2000/svg" xmlns:xlink="http://www.w3.org/1999/xlink" width="37.11116" height="22.11078"><g transform="translate(-240.29384,-245.99722)"><g data-paper-data="{&quot;isPaintingLayer&quot;:true}" fill="#9966ff" fill-rule="nonzero" stroke="none" stroke-width="0.5" stroke-linecap="butt" stroke-linejoin="miter" stroke-miterlimit="10" stroke-dasharray="" stroke-dashoffset="0" font-family="none" font-weight="none" font-size="none" text-anchor="none" style="mix-blend-mode: normal"><path d="M240.63614,252.17872c0.07208,-0.44214 0.1551,-0.84461 0.24772,-1.19148c-0.12481,-0.08113 -0.2444,-0.17227 -0.35721,-0.27303c-0.10555,-1.56839 -0.17615,-3.14171 -0.23281,-4.71699c0.57851,0.55729 1.31342,0.96664 2.15559,1.15129c0.54641,0.1198 1.0914,0.1348 1.61399,0.05842c0.04863,1.05532 0.14274,2.10753 0.36366,3.14775c-0.1125,1.8334 0.36859,3.9347 0.81737,5.90459c-0.00318,0.07591 -0.00473,0.15136 -0.00446,0.22632c0.00083,0.23975 0.05393,0.55695 0.13008,0.9152c-0.21632,1.65016 -0.09464,3.62548 0.39363,5.44955c-0.10093,1.48471 -0.14206,3.18493 0.12691,4.24804c0.00988,0.03905 0.02182,0.07949 0.03571,0.12115c-0.04505,0.09187 -0.09484,0.17976 -0.14955,0.26319c-1.11097,-0.18006 -2.20289,0.06618 -3.09858,0.62528c-0.42283,-1.99895 -0.07293,-4.55262 -0.55085,-6.4416l-0.00001,-0.00002c-0.78968,-3.12111 -1.227,-6.29215 -1.4912,-9.48765z" data-paper-data="{&quot;origPos&quot;:null,&quot;origRot&quot;:0}"/><path d="M272.1614,262.2498c0.02443,-2.8247 1.35736,-8.67262 2.04724,-13.30852c0.6093,0.38804 1.33271,0.61284 2.10861,0.61284c0.37736,0 0.7423,-0.05318 1.08774,-0.15244c-0.48604,4.71096 -2.02459,9.33338 -2.15584,14.09583c-0.02553,0.92648 -0.29082,1.81943 -0.58289,2.71453c-0.13687,0.19025 -0.29133,0.35638 -0.46803,0.48617c-0.65948,-0.50023 -1.48172,-0.79706 -2.37329,-0.79706c-0.07463,0 -0.14878,0.00208 -0.22239,0.00618c0.34162,-1.52229 0.55472,-3.18006 0.55885,-3.65755z" data-paper-data="{&quot;origPos&quot;:null}"/></g></g></svg>