<svg version="1.1" xmlns="http://www.w3.org/2000/svg" xmlns:xlink="http://www.w3.org/1999/xlink" width="65.93691" height="61.1475"><g transform="translate(-203.25002,-147.61058)"><g data-paper-data="{&quot;isPaintingLayer&quot;:true}" fill="none" fill-rule="nonzero" stroke="none" stroke-width="none" stroke-linecap="butt" stroke-linejoin="miter" stroke-miterlimit="10" stroke-dasharray="" stroke-dashoffset="0" font-family="none" font-weight="none" font-size="none" text-anchor="none" style="mix-blend-mode: normal"><path d="M205.57525,207.08247c-1.53999,-1.6091 -2.32523,-2.59244 -2.32523,-5.31481c0,-8.16706 0,-13.46891 0,-22.0897c0,-2.20348 0.6821,-4.0146 1.49479,-4.98265c0.86891,-1.035 3.06235,-2.49131 5.97916,-2.49131c19.96393,0 42.59911,0 51.15509,0c2.20304,0 4.52392,0.83732 5.4809,1.82697c1.18099,1.22131 1.82697,2.73018 1.82697,5.64699c0,8.55596 0,13.36765 0,21.92362c0,2.78718 -0.10584,3.75977 -1.66088,5.31481c-1.55502,1.55504 -2.69372,1.82697 -5.48091,1.82697c-8.36152,0 -31.29243,0 -51.32118,0c0,0 -3.28572,0.28573 -5.14872,-1.66089z" data-paper-data="{&quot;origPos&quot;:null}" fill="#afafaf" stroke-width="0"/><path d="M205.57525,182.48905c-1.53999,-1.6091 -2.32523,-2.59244 -2.32523,-5.31481c0,-8.16706 0,-13.46892 0,-22.08971c0,-2.20348 0.6821,-4.01459 1.49479,-4.98264c0.86891,-1.035 3.06235,-2.49131 5.97916,-2.49131c19.96393,0 42.59911,0 51.15509,0c2.20304,0 4.52392,0.83731 5.4809,1.82697c1.18099,1.22131 1.82697,2.73019 1.82697,5.647c0,8.55597 0,13.36764 0,21.92361c0,2.78718 -0.10584,3.75977 -1.66088,5.31481c-1.55502,1.55504 -2.69372,1.82698 -5.48091,1.82698c-8.36152,0 -31.29243,0 -51.32118,0c0,0 -3.28572,0.28573 -5.14872,-1.66089z" data-paper-data="{&quot;origPos&quot;:null}" fill="#afafaf" stroke-width="0"/><path d="M250.56427,201.61916v-20.25119l15.21699,10.06839z" data-paper-data="{&quot;origPos&quot;:null,&quot;index&quot;:null}" fill="#3e3e3e" stroke-width="0"/><path d="M214.49032,157.20768v-7h8v7z" data-paper-data="{&quot;origPos&quot;:null}" fill="#afafaf" stroke-width="0"/><path d="M207.85917,177.39212v-4.5164h18.39345v4.5164z" data-paper-data="{&quot;origPos&quot;:null}" fill="#afafaf" stroke-width="0"/><text transform="translate(223.47941,173.0887) scale(0.61465,0.5)" font-size="40" xml:space="preserve" data-paper-data="{&quot;origPos&quot;:null}" fill="#3e3e3e" fill-rule="nonzero" stroke="none" stroke-width="1" stroke-linecap="butt" stroke-linejoin="miter" stroke-miterlimit="10" stroke-dasharray="" stroke-dashoffset="0" font-family="Sans Serif" font-weight="normal" text-anchor="start" style="mix-blend-mode: normal"><tspan x="0" dy="0">风</tspan></text></g></g></svg>