<svg version="1.1" xmlns="http://www.w3.org/2000/svg" xmlns:xlink="http://www.w3.org/1999/xlink" width="36.09091" height="20.86173" viewBox="0,0,36.09091,20.86173"><g transform="translate(-222,-169.14632)"><g data-paper-data="{&quot;isPaintingLayer&quot;:true}" fill="none" fill-rule="nonzero" stroke="none" stroke-width="none" stroke-linecap="butt" stroke-linejoin="miter" stroke-miterlimit="10" stroke-dasharray="" stroke-dashoffset="0" font-family="none" font-weight="none" font-size="none" text-anchor="none" style="mix-blend-mode: normal"><path d="M223.27273,189.09091c-0.84292,-0.88075 -1.27273,-1.41899 -1.27273,-2.90909c0,-4.47028 0,-7.37228 0,-12.09091c0,-1.20609 0.37335,-2.19741 0.81818,-2.72728c0.4756,-0.56651 1.6762,-1.36363 3.27273,-1.36363c10.92736,0 23.31684,0 28,0c1.20585,0 2.47619,0.45831 3,1c0.64642,0.66849 1,1.49438 1,3.09091c0,4.68315 0,7.31685 0,12c0,1.52558 -0.05793,2.05793 -0.90909,2.90909c-0.85115,0.85116 -1.47442,1 -3,1c-4.57672,0 -17.12807,0 -28.09091,0c0,0 -1.79846,0.1564 -2.81818,-0.90909z" data-paper-data="{&quot;origPos&quot;:null}" fill="#a5a5a5" stroke-width="0"/><text transform="translate(226.41698,183.91785) scale(0.33958,0.33958)" font-size="40" xml:space="preserve" data-paper-data="{&quot;origPos&quot;:null}" fill="#3c3c3c" fill-rule="nonzero" stroke="none" stroke-width="1" stroke-linecap="butt" stroke-linejoin="miter" stroke-miterlimit="10" stroke-dasharray="" stroke-dashoffset="0" font-family="Sans Serif" font-weight="normal" text-anchor="start" style="mix-blend-mode: normal"><tspan x="0" dy="0">一般</tspan></text></g></g></svg>