<svg version="1.1" xmlns="http://www.w3.org/2000/svg" xmlns:xlink="http://www.w3.org/1999/xlink" width="51.55135" height="40.55741" viewBox="0,0,51.55135,40.55741"><g transform="translate(-228.93784,-199.75002)"><g data-paper-data="{&quot;isPaintingLayer&quot;:true}" fill="none" fill-rule="nonzero" stroke="none" stroke-width="none" stroke-linecap="none" stroke-linejoin="miter" stroke-miterlimit="10" stroke-dasharray="" stroke-dashoffset="0" font-family="none" font-weight="none" font-size="none" text-anchor="none" style="mix-blend-mode: normal"><path d="M231.28571,209.42859v-6.57143" data-paper-data="{&quot;origPos&quot;:null}" fill="none" stroke="#12ff00" stroke-width="4.5" stroke-linecap="round"/><path d="M277,210.85716v-8.85714" data-paper-data="{&quot;origPos&quot;:null}" fill="none" stroke="#12ff00" stroke-width="4.5" stroke-linecap="round"/><path d="M274.81138,205.57077c0.40958,0.13046 0.77962,0.30053 1.09925,0.51858c1.07181,0.73117 1.35634,1.74502 1.21957,2.85393c0.98264,0.10674 1.79437,0.7829 2.09835,1.69165c0.04492,0.09274 0.07864,0.19217 0.09912,0.2995c0.46567,2.4409 -1.6824,7.4761 -2.9087,9.58923c-0.19428,0.33477 -0.3937,0.77064 -0.61718,1.22373c0.00183,0.04581 0.00102,0.09252 -0.00259,0.14021c-0.10444,1.37895 -2.04762,3.95924 -3.85031,4.69146c-0.07699,0.669 -0.21806,1.41703 -0.42711,2.25324c-0.22044,0.88176 -1.00893,1.40629 -2.03704,1.70608l-0.01744,0.01587l-0.12811,0.21352l-0.11067,0.11067l-0.43411,0.65117l-0.18425,0.1675l-0.12811,0.21352l-0.11067,0.11067l-0.1484,0.2226l-0.18425,0.1675l-0.12811,0.21352l-0.11067,0.11067l-0.43411,0.65117l-0.18425,0.1675l-0.12811,0.21352l-0.28571,0.28571l-0.21352,0.12811l-0.1675,0.18425l-0.2226,0.1484l-0.25353,0.25353l-0.26391,0.15834l-0.21762,0.21762l-0.71429,0.42857l-0.19366,0.05894l-0.1641,0.11852l-0.52829,0.21132l-0.54251,0.32551l-0.26339,0.08016l-0.23228,0.14781l-0.47227,0.15742l-0.00314,0.00235l-0.00051,0.00182l-0.00663,0.00353l-0.2366,0.17745l-0.45656,0.19224l-0.4371,0.23312l-0.15132,0.03783l-0.06827,0.04551l-0.14877,0.05313l-0.11994,0.10281l-1.71429,0.85714l-0.17566,0.03903l-0.15181,0.09661l-0.11096,0.03699l-0.15001,0.1l-0.40291,0.1439l-0.3775,0.20133l-0.57143,0.14286h-0.1019l-0.09345,0.04063l-0.75866,0.12644l-0.47457,0.11864h-0.30776l-0.29857,0.07464h-0.26545l-0.02336,0.01558l-0.07009,-0.01558h-0.06966l-0.55728,-0.13932l-0.01592,-0.00354h-0.28395l-0.29857,-0.07464h-0.30776l-0.57143,-0.14286l-0.08649,-0.04613l-0.09774,-0.00752l-0.85714,-0.28571l-0.06342,-0.04036l-0.07449,-0.01016l-0.50117,-0.20047l-0.48921,-0.09784l-0.439,-0.20795l-0.45746,-0.16338l-0.06827,-0.04551l-0.15132,-0.03783l-0.15174,-0.08093l-0.1704,-0.02324l-0.71429,-0.28571l-0.1641,-0.11852l-0.19366,-0.05894l-0.54251,-0.32551l-0.52829,-0.21132l-0.26746,-0.19316l-0.30406,-0.12803l-0.51592,-0.38694l-0.37083,-0.24722l-0.1675,-0.18425l-0.21352,-0.12811l-0.11067,-0.11067l-0.19513,-0.13009l-0.03826,-0.00213l-0.42089,-0.49104l-0.07868,-0.08654l-0.29923,-0.17954l-0.07499,-0.07499l-0.11542,-0.04122l-0.42857,-0.28571l-0.1675,-0.18425l-0.21352,-0.12811l-0.76315,-0.76315l-0.0351,-0.03009l-0.33883,-0.2033l-0.21318,-0.10659l-0.30513,-0.26154l-0.34461,-0.20676l-0.47743,-0.47743l-0.0351,-0.03009l-0.34461,-0.20676l-0.33458,-0.33458l-0.0351,-0.03009l-0.34461,-0.20676l-0.42857,-0.42857c-0.21871,-0.21871 -0.39709,-0.47776 -0.52301,-0.76503c-0.41168,-0.43467 -0.66437,-1.06029 -0.74213,-1.70501c-0.8011,0.56064 -1.81954,0.75234 -2.65034,0.22715c-1.01503,-0.64164 -2.96283,-3.64975 -2.51292,-5.27983c-1.79994,-2.40449 -2.70949,-7.58702 -2.73239,-9.529c-0.01127,-0.95585 -1.41806,-3.3037 -0.22597,-3.98489c0.32496,-0.5506 0.85496,-0.96578 1.48496,-1.14049c-0.04181,-0.51609 0.06994,-1.01798 0.41611,-1.43169h-0.00001c0.64646,-0.7726 1.39936,-1.30114 2.23441,-1.64902" fill="none" stroke="none" stroke-width="NaN" stroke-linecap="none"/><path d="M236.36829,225.94958c-0.22329,-0.89315 -0.27873,-1.74831 -0.19396,-2.53452l-0.11882,-0.1307l-0.21352,-0.12811l-0.94603,-0.94603l-0.20676,-0.34461l-0.26154,-0.30513l-0.13391,-0.26782l-0.02847,-0.02847l-0.25375,-0.42292l-0.16598,-0.09485l-0.07791,-0.31164l-0.16527,-0.27545l0.04045,-0.1483l-0.00822,-0.00822l-0.29554,-0.49257l-0.3084,-0.48463l-0.02203,-0.06609l-0.03694,-0.06157l0.00739,-0.02709l-0.0499,-0.14971l-0.23589,-0.47177l-0.03903,-0.17566l-0.09661,-0.15181l-0.10149,-0.30446l-0.32395,-0.6479l-0.22901,-0.34351l-0.11231,-0.31447l-0.17927,-0.28172l-0.0518,-0.1554l-0.12963,-0.19445l-0.1439,-0.40291l-0.20133,-0.3775l-0.13438,-0.53754l-0.07113,-0.21338l-0.00861,-0.01722l-0.22901,-0.34351l-0.11231,-0.31447l-0.17927,-0.28172l-0.0518,-0.1554l-0.11067,-0.16601c-0.23342,-0.33932 -0.38523,-0.73916 -0.42708,-1.17117l-0.02524,-0.07068l0.01727,-0.03455c-0.00251,-0.04595 -0.00379,-0.09222 -0.00379,-0.1388c0,-1.38071 1.11929,-2.5 2.5,-2.5c0.33294,0 0.65067,0.06508 0.94118,0.18322l0.01622,-0.02839l1.25,-0.3125l0.784,0c1.45623,2.54139 3.59879,5.81984 3.67628,5.88918c0.913,0.81689 2.30807,0.83499 3.49659,1.13212c2.91457,0.72864 6.51583,-0.70124 9.39648,-1.12672c5.32382,-0.78634 13.32093,0.23601 18.23489,-2.52814c0.38743,-0.21793 0.7307,-0.48034 1.03856,-0.77838c1.03889,-0.78819 1.91897,-1.77481 2.58379,-2.9034l4.30669,0l1.25,0.3125l0.34091,0.59659l0.59659,0.34091l0.3125,1.25l0,0.15222l0.01558,0.02336l-0.01558,0.07009v0.06966l-0.13932,0.55728l-0.09091,0.4091l0.00324,0.01188l-0.00934,0.01556l-0.0276,0.12422l-0.03115,0.06231l-0.01742,0.06966l-0.02438,0.01393l-0.08472,0.16944l-0.26154,0.30513l-0.20676,0.34461l-0.61066,0.61066l-0.00682,0.12282l-0.37626,0.32251l-0.09452,0.11027l-0.00224,0.04023l-0.12156,0.1042l-0.1042,0.12156l-0.04023,0.00224l-0.11027,0.09452l-0.32251,0.37626l-0.12282,0.00682l-0.90863,0.90863l-0.17803,0.26704l-0.18425,0.1675l-0.12811,0.21352l-0.62029,0.62029l-0.11897,0.1388l-0.20676,0.34461l-0.31534,0.31534l-0.25648,0.15389c-0.15861,1.48621 -1.63581,2.9358 -2.32969,4.35929c-3.4452,7.06783 -5.83187,6.78237 -10.95385,11.90435c-2.22951,2.22951 -5.23428,5.22145 -8.56734,5.60033c-2.3933,0.27206 -4.0827,-2.14775 -5.53451,-3.55294c-3.80167,-3.67961 -8.51614,-5.84872 -10.9767,-10.76984zM272.56204,213.4889l0.00449,-0.00673h-0.32344l0.08304,0.16608l0.01392,0.06265z" fill="#12ff00" stroke="none" stroke-width="0.5" stroke-linecap="butt"/></g></g></svg>