<svg version="1.1" xmlns="http://www.w3.org/2000/svg" xmlns:xlink="http://www.w3.org/1999/xlink" width="90.19022" height="81.95463"><defs><linearGradient x1="195.5167" y1="156.97635" x2="244.85006" y2="156.97635" gradientUnits="userSpaceOnUse" id="color-1"><stop offset="0" stop-color="#d05d00"/><stop offset="1" stop-color="#f87000"/></linearGradient></defs><g transform="translate(-194.77494,-152.39302)"><g data-paper-data="{&quot;isPaintingLayer&quot;:true}" fill="none" fill-rule="nonzero" stroke="none" stroke-width="none" stroke-linecap="none" stroke-linejoin="miter" stroke-miterlimit="10" stroke-dasharray="" stroke-dashoffset="0" font-family="none" font-weight="none" font-size="none" text-anchor="none" style="mix-blend-mode: normal"><path d="M201.13035,196.01784v-36.075h37.15417v36.075z" data-paper-data="{&quot;origPos&quot;:null}" fill="#3e3e3e" stroke="none" stroke-width="0" stroke-linecap="butt"/><path d="M243.68334,161.05968c0,2.48528 -10.37207,4.5 -23.16667,4.5c-12.7946,0 -23.16667,-2.01472 -23.16667,-4.5c0,-2.48528 10.37207,-4.5 23.16667,-4.5c12.7946,0 23.16667,2.01472 23.16667,4.5z" data-paper-data="{&quot;origPos&quot;:null}" fill="#b45100" stroke="none" stroke-width="0" stroke-linecap="butt"/><path d="M219.67733,166.11399c-13.62303,0 -24.16064,-6.60633 -24.16064,-9.13764c0,-2.5313 11.04365,-4.58333 24.66667,-4.58333c13.62303,0 24.66667,2.05202 24.66667,4.58333c0,2.5313 -11.54968,9.13764 -25.1727,9.13764z" data-paper-data="{&quot;origPos&quot;:null}" fill="url(#color-1)" stroke="none" stroke-width="0" stroke-linecap="butt"/><path d="" data-paper-data="{&quot;origPos&quot;:null}" fill="#dadada" stroke="none" stroke-width="0" stroke-linecap="butt"/><path d="" data-paper-data="{&quot;origPos&quot;:null}" fill="#7b7b7b" stroke="none" stroke-width="0" stroke-linecap="butt"/><path d="" data-paper-data="{&quot;origPos&quot;:null}" fill="#bdbdbd" stroke="none" stroke-width="0" stroke-linecap="butt"/><path d="M201.69373,234.34765v-42.27053h36.46188v42.27053z" data-paper-data="{&quot;origPos&quot;:null}" fill="#b5b5b5" stroke="#3d3d3d" stroke-width="0" stroke-linecap="butt"/><path d="M236.22722,195.22922v-20.14334l33.04378,3.35739c-0.059,1.35948 15.59084,-3.35022 15.69417,-2.03101c-0.21647,0.22217 -4.93946,5.10404 -4.93946,5.10404c0,2.62838 -1.4229,2.83804 -1.4229,2.83804l-9.52644,10.87491z" data-paper-data="{&quot;origPos&quot;:null}" fill="#afaba6" stroke="none" stroke-width="0" stroke-linecap="butt"/><path d="M256.48762,189.84204c-13.38864,0 -24.24228,-5.97737 -24.24228,-13.35082c0,-7.37345 10.85364,-13.35082 24.24228,-13.35082c4.9648,0 9.58101,0.82194 13.42446,2.23221c-0.00059,0.00162 -0.00117,0.00325 -0.00174,0.00488c-0.38974,0.10479 14.16126,6.21269 14.16126,6.21269c0,8.48272 -14.94808,7.85246 -15.05966,16.33445c-3.6553,1.21703 -7.94128,1.91743 -12.52431,1.91743z" data-paper-data="{&quot;origPos&quot;:null}" fill="#afaba6" stroke="none" stroke-width="0" stroke-linecap="butt"/><path d="M226.23101,209.1257l8.82508,-34.03984l0.70267,20.14334l33.40028,-0.22119c-0.06201,0.10916 -0.09742,0.2354 -0.09742,0.36992c0,0.06015 0.00708,0.11863 0.02045,0.17468z" data-paper-data="{&quot;origPos&quot;:null}" fill="#a09c98" stroke="none" stroke-width="0" stroke-linecap="butt"/><path d="M196.27494,156.71047c0,0 5.00874,-3.4886 24.21973,-3.6256c18.35519,-0.1309 24.01169,3.6256 24.01169,3.6256" data-paper-data="{&quot;origPos&quot;:null,&quot;index&quot;:null}" fill="none" stroke="#c15700" stroke-width="3" stroke-linecap="round"/></g></g></svg>