<svg version="1.1" xmlns="http://www.w3.org/2000/svg" xmlns:xlink="http://www.w3.org/1999/xlink" width="46.66571" height="22.11076"><g transform="translate(-236.29384,-239.71152)"><g data-paper-data="{&quot;isPaintingLayer&quot;:true}" fill="#9966ff" fill-rule="nonzero" stroke="none" stroke-width="0.5" stroke-linecap="butt" stroke-linejoin="miter" stroke-miterlimit="10" stroke-dasharray="" stroke-dashoffset="0" font-family="none" font-weight="none" font-size="none" text-anchor="none" style="mix-blend-mode: normal"><path d="M236.63614,245.89301c0.07208,-0.44214 0.1551,-0.84461 0.24772,-1.19148c-0.12481,-0.08113 -0.2444,-0.17227 -0.35721,-0.27303c-0.10555,-1.56839 -0.17615,-3.14171 -0.23281,-4.71699c0.57851,0.55729 1.31342,0.96664 2.15559,1.15129c0.54641,0.1198 1.0914,0.1348 1.61399,0.05842c0.04863,1.05532 0.14274,2.10753 0.36366,3.14775c-0.1125,1.8334 0.36859,3.9347 0.81737,5.90459c-0.00318,0.07591 -0.00473,0.15136 -0.00446,0.22632c0.00083,0.23975 0.05393,0.55695 0.13008,0.9152c-0.21632,1.65016 -0.09464,3.62548 0.39363,5.44955c-0.10093,1.48471 -0.14206,3.18493 0.12691,4.24804c0.00988,0.03905 0.02182,0.07949 0.03571,0.12115c-0.04505,0.09187 -0.09484,0.17976 -0.14955,0.26319c-1.11097,-0.18006 -2.20289,0.06618 -3.09858,0.62528c-0.42283,-1.99895 -0.07293,-4.55262 -0.55085,-6.4416l-0.00001,-0.00002c-0.78968,-3.12111 -1.227,-6.29215 -1.4912,-9.48765z" data-paper-data="{&quot;origPos&quot;:null,&quot;origRot&quot;:0}"/><path d="M276.95662,255.89133c0.02797,-3.23375 1.55392,-9.92853 2.34371,-15.23576c0.69754,0.44423 1.5257,0.70159 2.41396,0.70159c0.43201,0 0.8498,-0.06088 1.24526,-0.17452c-0.55642,5.39317 -2.31778,10.68497 -2.46803,16.13709c-0.02923,1.06065 -0.33294,2.08291 -0.6673,3.10763c-0.15669,0.2178 -0.33352,0.40799 -0.53581,0.55657c-0.75498,-0.57267 -1.69629,-0.91248 -2.71697,-0.91248c-0.08544,0 -0.17033,0.00238 -0.2546,0.00708c0.39109,-1.74274 0.63505,-3.64057 0.63978,-4.18721z" data-paper-data="{&quot;origPos&quot;:null}"/></g></g></svg>