<svg version="1.1" xmlns="http://www.w3.org/2000/svg" xmlns:xlink="http://www.w3.org/1999/xlink" width="52.00389" height="47.13819" viewBox="0,0,52.00389,47.13819"><g transform="translate(-207.03275,-154.52036)"><g data-paper-data="{&quot;isPaintingLayer&quot;:true}" fill="none" fill-rule="nonzero" stroke="none" stroke-width="0" stroke-linecap="butt" stroke-linejoin="miter" stroke-miterlimit="10" stroke-dasharray="" stroke-dashoffset="0" font-family="none" font-weight="none" font-size="none" text-anchor="none" style="mix-blend-mode: normal"><g data-paper-data="{&quot;origPos&quot;:null}"><path d="M259.03664,178.94226c0,12.08123 -7.10252,6.56991 -12.00882,10.00536c-3.18441,2.22976 -3.35449,8.47433 -3.35449,8.47433c-5.18559,6.7705 -8.01169,3.39531 -8.01169,3.39531c-6.57372,0 -6.50137,-4.83013 -11.54904,-9.04139c-5.60666,-4.67763 -11.82596,-5.53191 -11.82596,-12.83361c0,-5.28799 -7.66493,-6.63866 -4.47859,-10.85884c3.86654,-5.12109 13.23516,-1.95371 19.32146,-3.98659c5.29876,-1.76983 2.9456,-7.02957 8.53212,-7.02957c4.30797,0 3.79581,4.79183 7.67745,6.66038c8.62062,4.1498 15.69755,5.64718 15.69755,15.21462z" data-paper-data="{&quot;origPos&quot;:null}" fill="#b0b0b0"/><path d="M245.38321,155.86533c10.95127,5.10154 2.95623,9.2125 3.99858,15.1106c0.67653,3.82813 6.26523,6.6192 6.26523,6.6192c3.94753,7.55955 -0.30535,8.69609 -0.30535,8.69609c-2.77588,5.95887 -7.12371,3.85367 -13.07257,6.65094c-6.60766,3.10704 -10.00826,8.38391 -16.62703,5.30062c-4.7934,-2.23296 -9.25442,4.14472 -11.73439,-0.52566c-3.00938,-5.66739 3.81784,-12.82228 4.54516,-19.19775c0.63321,-5.55053 -5.12825,-5.63849 -2.76923,-10.7025c1.81914,-3.90505 5.9465,-1.41734 9.27939,-4.1469c7.40191,-6.06199 11.74762,-11.84472 20.42022,-7.80467z" data-paper-data="{&quot;origPos&quot;:null,&quot;origRot&quot;:0}" fill="#c1c1c1"/><path d="M243.28663,179.19226c0,2.54869 8.24722,3.03313 6.41376,4.8035c-2.4755,2.39032 -13.59759,4.0715 -17.03876,4.0715c-2.66402,0 -7.98771,5.10165 -10.22805,3.66017c-2.79691,-1.79959 -0.39694,-9.20933 -0.39694,-12.53517c0,-4.90152 0.25698,-5.625 6.125,-5.625c0,0 5.04772,-9.51089 8.88662,-8.42413c2.73249,0.77355 6.23838,9.1476 6.23838,14.04913z" data-paper-data="{&quot;origPos&quot;:null}" fill="#d9d9d9"/></g></g></g></svg>