<svg version="1.1" xmlns="http://www.w3.org/2000/svg" xmlns:xlink="http://www.w3.org/1999/xlink" width="66.02597" height="21.55433"><g transform="translate(-226.79072,-237.22699)"><g data-paper-data="{&quot;isPaintingLayer&quot;:true}" fill="#9966ff" fill-rule="nonzero" stroke="none" stroke-width="0.5" stroke-linecap="butt" stroke-linejoin="miter" stroke-miterlimit="10" stroke-dasharray="" stroke-dashoffset="0" font-family="none" font-weight="none" font-size="none" text-anchor="none" style="mix-blend-mode: normal"><path d="M228.44895,243.659c-0.02428,-0.44732 -0.02939,-0.85823 -0.0132,-1.21689c-0.13929,-0.05252 -0.27562,-0.11593 -0.4074,-0.19019c-0.439,-1.50939 -0.84491,-3.03109 -1.23763,-4.55768c0.68444,0.42046 1.48997,0.66292 2.35214,0.66292c0.55939,0 1.09495,-0.10207 1.58905,-0.2886c0.27352,1.02042 0.59079,2.02806 1.02937,2.99683c0.28276,1.81495 1.20272,3.76446 2.06297,5.59253c0.01315,0.07483 0.0278,0.14886 0.04411,0.22202c0.05216,0.23401 0.17196,0.53248 0.32307,0.86611c0.14211,1.6582 0.68401,3.56163 1.55161,5.2388c0.21939,1.47188 0.54334,3.14146 1.03375,4.12229c0.01801,0.03603 0.03834,0.07297 0.06083,0.11069c-0.02433,0.09939 -0.05414,0.1959 -0.08971,0.28911c-1.12376,0.06205 -2.1376,0.53643 -2.89277,1.27438c-0.84113,-1.86201 -1.04626,-4.43137 -1.91764,-6.17416l-0.00001,-0.00002c-1.43979,-2.87957 -2.5461,-5.88337 -3.48854,-8.94814z"/><path d="M286.81376,252.46275c0.02797,-3.23375 1.55392,-9.92853 2.34371,-15.23576c0.69754,0.44423 1.5257,0.70159 2.41396,0.70159c0.43201,0 0.8498,-0.06088 1.24526,-0.17452c-0.55642,5.39317 -2.31778,10.68497 -2.46803,16.13709c-0.02923,1.06065 -0.33294,2.08291 -0.6673,3.10763c-0.15669,0.2178 -0.33352,0.40799 -0.53581,0.55657c-0.75498,-0.57267 -1.69629,-0.91248 -2.71697,-0.91248c-0.08544,0 -0.17033,0.00238 -0.2546,0.00708c0.39109,-1.74274 0.63505,-3.64057 0.63978,-4.18721z"/></g></g></svg>